%TF.GenerationSoftware,KiCad,Pcbnew,10.0.4*%
%TF.CreationDate,2026-09-21T07:57:31+08:00*%
%TF.ProjectId,Harvest Overseer,48617276-6573-4742-904f-766572736565,rev?*%
%TF.SameCoordinates,Original*%
%TF.FileFunction,Legend,Top*%
%TF.FilePolarity,Positive*%
%FSLAX46Y46*%
G04 Gerber Fmt 4.6, Leading zero omitted, Abs format (unit mm)*
G04 Created by KiCad (PCBNEW 10.0.4) date 2026-09-21 07:57:31*
%MOMM*%
%LPD*%
G01*
G04 APERTURE LIST*
%ADD10C,0.150000*%
%ADD11C,0.100000*%
%ADD12C,0.250000*%
%ADD13C,0.060000*%
%ADD14C,0.120000*%
%ADD15C,0.152400*%
G04 APERTURE END LIST*
D10*
X151438095Y-87154819D02*
X151438095Y-87964342D01*
X151438095Y-87964342D02*
X151485714Y-88059580D01*
X151485714Y-88059580D02*
X151533333Y-88107200D01*
X151533333Y-88107200D02*
X151628571Y-88154819D01*
X151628571Y-88154819D02*
X151819047Y-88154819D01*
X151819047Y-88154819D02*
X151914285Y-88107200D01*
X151914285Y-88107200D02*
X151961904Y-88059580D01*
X151961904Y-88059580D02*
X152009523Y-87964342D01*
X152009523Y-87964342D02*
X152009523Y-87154819D01*
X153009523Y-88154819D02*
X152438095Y-88154819D01*
X152723809Y-88154819D02*
X152723809Y-87154819D01*
X152723809Y-87154819D02*
X152628571Y-87297676D01*
X152628571Y-87297676D02*
X152533333Y-87392914D01*
X152533333Y-87392914D02*
X152438095Y-87440533D01*
X127257200Y-66093332D02*
X127304819Y-65950475D01*
X127304819Y-65950475D02*
X127304819Y-65712380D01*
X127304819Y-65712380D02*
X127257200Y-65617142D01*
X127257200Y-65617142D02*
X127209580Y-65569523D01*
X127209580Y-65569523D02*
X127114342Y-65521904D01*
X127114342Y-65521904D02*
X127019104Y-65521904D01*
X127019104Y-65521904D02*
X126923866Y-65569523D01*
X126923866Y-65569523D02*
X126876247Y-65617142D01*
X126876247Y-65617142D02*
X126828628Y-65712380D01*
X126828628Y-65712380D02*
X126781009Y-65902856D01*
X126781009Y-65902856D02*
X126733390Y-65998094D01*
X126733390Y-65998094D02*
X126685771Y-66045713D01*
X126685771Y-66045713D02*
X126590533Y-66093332D01*
X126590533Y-66093332D02*
X126495295Y-66093332D01*
X126495295Y-66093332D02*
X126400057Y-66045713D01*
X126400057Y-66045713D02*
X126352438Y-65998094D01*
X126352438Y-65998094D02*
X126304819Y-65902856D01*
X126304819Y-65902856D02*
X126304819Y-65664761D01*
X126304819Y-65664761D02*
X126352438Y-65521904D01*
X126304819Y-65188570D02*
X127304819Y-64950475D01*
X127304819Y-64950475D02*
X126590533Y-64759999D01*
X126590533Y-64759999D02*
X127304819Y-64569523D01*
X127304819Y-64569523D02*
X126304819Y-64331428D01*
X126400057Y-63998094D02*
X126352438Y-63950475D01*
X126352438Y-63950475D02*
X126304819Y-63855237D01*
X126304819Y-63855237D02*
X126304819Y-63617142D01*
X126304819Y-63617142D02*
X126352438Y-63521904D01*
X126352438Y-63521904D02*
X126400057Y-63474285D01*
X126400057Y-63474285D02*
X126495295Y-63426666D01*
X126495295Y-63426666D02*
X126590533Y-63426666D01*
X126590533Y-63426666D02*
X126733390Y-63474285D01*
X126733390Y-63474285D02*
X127304819Y-64045713D01*
X127304819Y-64045713D02*
X127304819Y-63426666D01*
X122038095Y-79254819D02*
X122038095Y-80064342D01*
X122038095Y-80064342D02*
X122085714Y-80159580D01*
X122085714Y-80159580D02*
X122133333Y-80207200D01*
X122133333Y-80207200D02*
X122228571Y-80254819D01*
X122228571Y-80254819D02*
X122419047Y-80254819D01*
X122419047Y-80254819D02*
X122514285Y-80207200D01*
X122514285Y-80207200D02*
X122561904Y-80159580D01*
X122561904Y-80159580D02*
X122609523Y-80064342D01*
X122609523Y-80064342D02*
X122609523Y-79254819D01*
X122990476Y-79254819D02*
X123609523Y-79254819D01*
X123609523Y-79254819D02*
X123276190Y-79635771D01*
X123276190Y-79635771D02*
X123419047Y-79635771D01*
X123419047Y-79635771D02*
X123514285Y-79683390D01*
X123514285Y-79683390D02*
X123561904Y-79731009D01*
X123561904Y-79731009D02*
X123609523Y-79826247D01*
X123609523Y-79826247D02*
X123609523Y-80064342D01*
X123609523Y-80064342D02*
X123561904Y-80159580D01*
X123561904Y-80159580D02*
X123514285Y-80207200D01*
X123514285Y-80207200D02*
X123419047Y-80254819D01*
X123419047Y-80254819D02*
X123133333Y-80254819D01*
X123133333Y-80254819D02*
X123038095Y-80207200D01*
X123038095Y-80207200D02*
X122990476Y-80159580D01*
D11*
X122466667Y-108588704D02*
X122428571Y-108626800D01*
X122428571Y-108626800D02*
X122314286Y-108664895D01*
X122314286Y-108664895D02*
X122238095Y-108664895D01*
X122238095Y-108664895D02*
X122123809Y-108626800D01*
X122123809Y-108626800D02*
X122047619Y-108550609D01*
X122047619Y-108550609D02*
X122009524Y-108474419D01*
X122009524Y-108474419D02*
X121971428Y-108322038D01*
X121971428Y-108322038D02*
X121971428Y-108207752D01*
X121971428Y-108207752D02*
X122009524Y-108055371D01*
X122009524Y-108055371D02*
X122047619Y-107979180D01*
X122047619Y-107979180D02*
X122123809Y-107902990D01*
X122123809Y-107902990D02*
X122238095Y-107864895D01*
X122238095Y-107864895D02*
X122314286Y-107864895D01*
X122314286Y-107864895D02*
X122428571Y-107902990D01*
X122428571Y-107902990D02*
X122466667Y-107941085D01*
X123228571Y-108664895D02*
X122771428Y-108664895D01*
X123000000Y-108664895D02*
X123000000Y-107864895D01*
X123000000Y-107864895D02*
X122923809Y-107979180D01*
X122923809Y-107979180D02*
X122847619Y-108055371D01*
X122847619Y-108055371D02*
X122771428Y-108093466D01*
D10*
X145954819Y-89666666D02*
X145478628Y-89999999D01*
X145954819Y-90238094D02*
X144954819Y-90238094D01*
X144954819Y-90238094D02*
X144954819Y-89857142D01*
X144954819Y-89857142D02*
X145002438Y-89761904D01*
X145002438Y-89761904D02*
X145050057Y-89714285D01*
X145050057Y-89714285D02*
X145145295Y-89666666D01*
X145145295Y-89666666D02*
X145288152Y-89666666D01*
X145288152Y-89666666D02*
X145383390Y-89714285D01*
X145383390Y-89714285D02*
X145431009Y-89761904D01*
X145431009Y-89761904D02*
X145478628Y-89857142D01*
X145478628Y-89857142D02*
X145478628Y-90238094D01*
X144954819Y-89333332D02*
X144954819Y-88714285D01*
X144954819Y-88714285D02*
X145335771Y-89047618D01*
X145335771Y-89047618D02*
X145335771Y-88904761D01*
X145335771Y-88904761D02*
X145383390Y-88809523D01*
X145383390Y-88809523D02*
X145431009Y-88761904D01*
X145431009Y-88761904D02*
X145526247Y-88714285D01*
X145526247Y-88714285D02*
X145764342Y-88714285D01*
X145764342Y-88714285D02*
X145859580Y-88761904D01*
X145859580Y-88761904D02*
X145907200Y-88809523D01*
X145907200Y-88809523D02*
X145954819Y-88904761D01*
X145954819Y-88904761D02*
X145954819Y-89190475D01*
X145954819Y-89190475D02*
X145907200Y-89285713D01*
X145907200Y-89285713D02*
X145859580Y-89333332D01*
X143354819Y-89266666D02*
X142878628Y-89599999D01*
X143354819Y-89838094D02*
X142354819Y-89838094D01*
X142354819Y-89838094D02*
X142354819Y-89457142D01*
X142354819Y-89457142D02*
X142402438Y-89361904D01*
X142402438Y-89361904D02*
X142450057Y-89314285D01*
X142450057Y-89314285D02*
X142545295Y-89266666D01*
X142545295Y-89266666D02*
X142688152Y-89266666D01*
X142688152Y-89266666D02*
X142783390Y-89314285D01*
X142783390Y-89314285D02*
X142831009Y-89361904D01*
X142831009Y-89361904D02*
X142878628Y-89457142D01*
X142878628Y-89457142D02*
X142878628Y-89838094D01*
X142450057Y-88885713D02*
X142402438Y-88838094D01*
X142402438Y-88838094D02*
X142354819Y-88742856D01*
X142354819Y-88742856D02*
X142354819Y-88504761D01*
X142354819Y-88504761D02*
X142402438Y-88409523D01*
X142402438Y-88409523D02*
X142450057Y-88361904D01*
X142450057Y-88361904D02*
X142545295Y-88314285D01*
X142545295Y-88314285D02*
X142640533Y-88314285D01*
X142640533Y-88314285D02*
X142783390Y-88361904D01*
X142783390Y-88361904D02*
X143354819Y-88933332D01*
X143354819Y-88933332D02*
X143354819Y-88314285D01*
X146746667Y-108907200D02*
X146889524Y-108954819D01*
X146889524Y-108954819D02*
X147127619Y-108954819D01*
X147127619Y-108954819D02*
X147222857Y-108907200D01*
X147222857Y-108907200D02*
X147270476Y-108859580D01*
X147270476Y-108859580D02*
X147318095Y-108764342D01*
X147318095Y-108764342D02*
X147318095Y-108669104D01*
X147318095Y-108669104D02*
X147270476Y-108573866D01*
X147270476Y-108573866D02*
X147222857Y-108526247D01*
X147222857Y-108526247D02*
X147127619Y-108478628D01*
X147127619Y-108478628D02*
X146937143Y-108431009D01*
X146937143Y-108431009D02*
X146841905Y-108383390D01*
X146841905Y-108383390D02*
X146794286Y-108335771D01*
X146794286Y-108335771D02*
X146746667Y-108240533D01*
X146746667Y-108240533D02*
X146746667Y-108145295D01*
X146746667Y-108145295D02*
X146794286Y-108050057D01*
X146794286Y-108050057D02*
X146841905Y-108002438D01*
X146841905Y-108002438D02*
X146937143Y-107954819D01*
X146937143Y-107954819D02*
X147175238Y-107954819D01*
X147175238Y-107954819D02*
X147318095Y-108002438D01*
X147651429Y-107954819D02*
X147889524Y-108954819D01*
X147889524Y-108954819D02*
X148080000Y-108240533D01*
X148080000Y-108240533D02*
X148270476Y-108954819D01*
X148270476Y-108954819D02*
X148508572Y-107954819D01*
X149413333Y-108954819D02*
X148841905Y-108954819D01*
X149127619Y-108954819D02*
X149127619Y-107954819D01*
X149127619Y-107954819D02*
X149032381Y-108097676D01*
X149032381Y-108097676D02*
X148937143Y-108192914D01*
X148937143Y-108192914D02*
X148841905Y-108240533D01*
X127594819Y-97761904D02*
X128404342Y-97761904D01*
X128404342Y-97761904D02*
X128499580Y-97714285D01*
X128499580Y-97714285D02*
X128547200Y-97666666D01*
X128547200Y-97666666D02*
X128594819Y-97571428D01*
X128594819Y-97571428D02*
X128594819Y-97380952D01*
X128594819Y-97380952D02*
X128547200Y-97285714D01*
X128547200Y-97285714D02*
X128499580Y-97238095D01*
X128499580Y-97238095D02*
X128404342Y-97190476D01*
X128404342Y-97190476D02*
X127594819Y-97190476D01*
X127690057Y-96761904D02*
X127642438Y-96714285D01*
X127642438Y-96714285D02*
X127594819Y-96619047D01*
X127594819Y-96619047D02*
X127594819Y-96380952D01*
X127594819Y-96380952D02*
X127642438Y-96285714D01*
X127642438Y-96285714D02*
X127690057Y-96238095D01*
X127690057Y-96238095D02*
X127785295Y-96190476D01*
X127785295Y-96190476D02*
X127880533Y-96190476D01*
X127880533Y-96190476D02*
X128023390Y-96238095D01*
X128023390Y-96238095D02*
X128594819Y-96809523D01*
X128594819Y-96809523D02*
X128594819Y-96190476D01*
X121454819Y-106899999D02*
X121692914Y-106899999D01*
X121597676Y-107138094D02*
X121692914Y-106899999D01*
X121692914Y-106899999D02*
X121597676Y-106661904D01*
X121883390Y-107042856D02*
X121692914Y-106899999D01*
X121692914Y-106899999D02*
X121883390Y-106757142D01*
X121454819Y-107699999D02*
X121692914Y-107699999D01*
X121597676Y-107938094D02*
X121692914Y-107699999D01*
X121692914Y-107699999D02*
X121597676Y-107461904D01*
X121883390Y-107842856D02*
X121692914Y-107699999D01*
X121692914Y-107699999D02*
X121883390Y-107557142D01*
X130233333Y-108154819D02*
X129900000Y-107678628D01*
X129661905Y-108154819D02*
X129661905Y-107154819D01*
X129661905Y-107154819D02*
X130042857Y-107154819D01*
X130042857Y-107154819D02*
X130138095Y-107202438D01*
X130138095Y-107202438D02*
X130185714Y-107250057D01*
X130185714Y-107250057D02*
X130233333Y-107345295D01*
X130233333Y-107345295D02*
X130233333Y-107488152D01*
X130233333Y-107488152D02*
X130185714Y-107583390D01*
X130185714Y-107583390D02*
X130138095Y-107631009D01*
X130138095Y-107631009D02*
X130042857Y-107678628D01*
X130042857Y-107678628D02*
X129661905Y-107678628D01*
X131185714Y-108154819D02*
X130614286Y-108154819D01*
X130900000Y-108154819D02*
X130900000Y-107154819D01*
X130900000Y-107154819D02*
X130804762Y-107297676D01*
X130804762Y-107297676D02*
X130709524Y-107392914D01*
X130709524Y-107392914D02*
X130614286Y-107440533D01*
X115174819Y-57033333D02*
X115889104Y-57033333D01*
X115889104Y-57033333D02*
X116031961Y-57080952D01*
X116031961Y-57080952D02*
X116127200Y-57176190D01*
X116127200Y-57176190D02*
X116174819Y-57319047D01*
X116174819Y-57319047D02*
X116174819Y-57414285D01*
X115270057Y-56604761D02*
X115222438Y-56557142D01*
X115222438Y-56557142D02*
X115174819Y-56461904D01*
X115174819Y-56461904D02*
X115174819Y-56223809D01*
X115174819Y-56223809D02*
X115222438Y-56128571D01*
X115222438Y-56128571D02*
X115270057Y-56080952D01*
X115270057Y-56080952D02*
X115365295Y-56033333D01*
X115365295Y-56033333D02*
X115460533Y-56033333D01*
X115460533Y-56033333D02*
X115603390Y-56080952D01*
X115603390Y-56080952D02*
X116174819Y-56652380D01*
X116174819Y-56652380D02*
X116174819Y-56033333D01*
%TO.C,U1*%
D12*
X126940000Y-69290000D02*
X126940000Y-72340000D01*
X126940000Y-72340000D02*
X128330000Y-72340000D01*
X126940000Y-83260000D02*
X126940000Y-86310000D01*
X128330000Y-72340000D02*
X128580000Y-72340000D01*
X128330000Y-83260000D02*
X126940000Y-83260000D01*
X128330000Y-83260000D02*
X128580000Y-83260000D01*
X128580000Y-69230000D02*
X126940000Y-69230000D01*
X128580000Y-69230000D02*
X154820000Y-69230000D01*
X128580000Y-72340000D02*
X128580000Y-83260000D01*
X128580000Y-86370000D02*
X126940000Y-86370000D01*
X154820000Y-69230000D02*
X154820000Y-86370000D01*
X154820000Y-86370000D02*
X128580000Y-86370000D01*
D13*
X126960000Y-86300000D02*
G75*
G02*
X126900000Y-86300000I-30000J0D01*
G01*
X126900000Y-86300000D02*
G75*
G02*
X126960000Y-86300000I30000J0D01*
G01*
%TO.C,SW2*%
D12*
X115750000Y-63260000D02*
X115750000Y-66260000D01*
X115750000Y-63260000D02*
X117750000Y-63260000D01*
X115750000Y-66260000D02*
X117750000Y-66260000D01*
X117750000Y-61010000D02*
X117750000Y-68510000D01*
X117750000Y-61010000D02*
X121350000Y-61010000D01*
X117750000Y-68510000D02*
X121350000Y-68510000D01*
X123890000Y-62470000D02*
X123890000Y-66920000D01*
D13*
X115650000Y-60060000D02*
G75*
G02*
X115590000Y-60060000I-30000J0D01*
G01*
X115590000Y-60060000D02*
G75*
G02*
X115650000Y-60060000I30000J0D01*
G01*
%TO.C,U3*%
D14*
X120740000Y-80840000D02*
X124860000Y-80840000D01*
X120740000Y-80935000D02*
X120740000Y-80840000D01*
X120740000Y-85960000D02*
X120740000Y-85865000D01*
X124860000Y-80840000D02*
X124860000Y-80935000D01*
X124860000Y-85865000D02*
X124860000Y-85960000D01*
X124860000Y-85960000D02*
X120740000Y-85960000D01*
X125400000Y-85870000D02*
X125640000Y-86200000D01*
X125160000Y-86200000D01*
X125400000Y-85870000D01*
G36*
X125640000Y-86200000D02*
G01*
X125160000Y-86200000D01*
X125400000Y-85870000D01*
X125640000Y-86200000D01*
G37*
%TO.C,C1*%
X124092164Y-107440000D02*
X124307836Y-107440000D01*
X124092164Y-108160000D02*
X124307836Y-108160000D01*
%TO.C,R3*%
X144877500Y-91662742D02*
X144877500Y-92137258D01*
X145922500Y-91662742D02*
X145922500Y-92137258D01*
%TO.C,R2*%
X142377500Y-91262742D02*
X142377500Y-91737258D01*
X143422500Y-91262742D02*
X143422500Y-91737258D01*
%TO.C,SW1*%
X145150000Y-104410000D02*
X145150000Y-103950000D01*
X145150000Y-107650000D02*
X145150000Y-107190000D01*
X145150000Y-107650000D02*
X151350000Y-107650000D01*
X151350000Y-103950000D02*
X145150000Y-103950000D01*
X151350000Y-104410000D02*
X151350000Y-103950000D01*
X151350000Y-107190000D02*
X152350000Y-107190000D01*
X151350000Y-107650000D02*
X151350000Y-107190000D01*
X146900000Y-105300000D02*
X149750000Y-105300000D01*
X149750000Y-106350000D01*
X146900000Y-106350000D01*
X146900000Y-105300000D01*
%TO.C,U2*%
D15*
X115262200Y-87868700D02*
X115262200Y-106131300D01*
X115262200Y-106131300D02*
X122140860Y-106131300D01*
X122140860Y-87868700D02*
X115262200Y-87868700D01*
X140129140Y-106131300D02*
X141017800Y-106131300D01*
X141017800Y-87868700D02*
X140129140Y-87868700D01*
X141017800Y-89275860D02*
X141017800Y-87868700D01*
X141017800Y-106131300D02*
X141017800Y-104724140D01*
%TO.C,R1*%
D14*
X126762742Y-107177500D02*
X127237258Y-107177500D01*
X126762742Y-108222500D02*
X127237258Y-108222500D01*
%TO.C,J2*%
X117160000Y-55370000D02*
X118490000Y-55370000D01*
X117160000Y-56700000D02*
X117160000Y-55370000D01*
X119760000Y-55370000D02*
X152840000Y-55370000D01*
X119760000Y-58030000D02*
X119760000Y-55370000D01*
X119760000Y-58030000D02*
X152840000Y-58030000D01*
X152840000Y-58030000D02*
X152840000Y-55370000D01*
%TD*%
M02*
