%TF.GenerationSoftware,KiCad,Pcbnew,10.0.3*%
%TF.CreationDate,2026-09-21T00:00:47+08:00*%
%TF.ProjectId,YieldSmart,5969656c-6453-46d6-9172-742e6b696361,rev?*%
%TF.SameCoordinates,Original*%
%TF.FileFunction,Soldermask,Bot*%
%TF.FilePolarity,Negative*%
%FSLAX46Y46*%
G04 Gerber Fmt 4.6, Leading zero omitted, Abs format (unit mm)*
G04 Created by KiCad (PCBNEW 10.0.3) date 2026-09-21 00:00:47*
%MOMM*%
%LPD*%
G01*
G04 APERTURE LIST*
%ADD10C,2.100000*%
%ADD11R,1.700000X1.700000*%
%ADD12C,1.700000*%
%ADD13C,0.700000*%
%ADD14O,0.900000X2.400000*%
%ADD15O,0.900000X1.700000*%
G04 APERTURE END LIST*
D10*
%TO.C,REF\u002A\u002A*%
X131200000Y-47500000D03*
%TD*%
%TO.C,REF\u002A\u002A*%
X131400000Y-68600000D03*
%TD*%
%TO.C,REF\u002A\u002A*%
X78500000Y-86100000D03*
%TD*%
%TO.C,REF\u002A\u002A*%
X78400000Y-47500000D03*
%TD*%
D11*
%TO.C,J3*%
X77930000Y-51850000D03*
D12*
X80470000Y-51850000D03*
X83010000Y-51850000D03*
X85550000Y-51850000D03*
%TD*%
D11*
%TO.C,J4*%
X90360000Y-51850000D03*
D12*
X92900000Y-51850000D03*
X95440000Y-51850000D03*
X97980000Y-51850000D03*
X100520000Y-51850000D03*
X103060000Y-51850000D03*
X105600000Y-51850000D03*
X108140000Y-51850000D03*
%TD*%
D11*
%TO.C,J7*%
X123100000Y-47650000D03*
D12*
X125640000Y-47650000D03*
%TD*%
D11*
%TO.C,J2*%
X113210000Y-51850000D03*
D12*
X115750000Y-51850000D03*
X118290000Y-51850000D03*
X120830000Y-51850000D03*
X123370000Y-51850000D03*
X125910000Y-51850000D03*
X128450000Y-51850000D03*
X130990000Y-51850000D03*
%TD*%
D13*
%TO.C,J1*%
X90175000Y-78725000D03*
X91025000Y-78725000D03*
X91875000Y-78725000D03*
X92725000Y-78725000D03*
X93575000Y-78725000D03*
X94425000Y-78725000D03*
X95275000Y-78725000D03*
X96125000Y-78725000D03*
X96125000Y-80075000D03*
X95275000Y-80075000D03*
X94425000Y-80075000D03*
X93575000Y-80075000D03*
X92725000Y-80075000D03*
X91875000Y-80075000D03*
X91025000Y-80075000D03*
X90175000Y-80075000D03*
D14*
X88825000Y-79705000D03*
D15*
X88825000Y-83085000D03*
D14*
X97475000Y-79705000D03*
D15*
X97475000Y-83085000D03*
%TD*%
M02*
