%TF.GenerationSoftware,KiCad,Pcbnew,10.0.3*%
%TF.CreationDate,2026-09-21T00:00:47+08:00*%
%TF.ProjectId,YieldSmart,5969656c-6453-46d6-9172-742e6b696361,rev?*%
%TF.SameCoordinates,Original*%
%TF.FileFunction,Copper,L1,Top*%
%TF.FilePolarity,Positive*%
%FSLAX46Y46*%
G04 Gerber Fmt 4.6, Leading zero omitted, Abs format (unit mm)*
G04 Created by KiCad (PCBNEW 10.0.3) date 2026-09-21 00:00:47*
%MOMM*%
%LPD*%
G01*
G04 APERTURE LIST*
G04 Aperture macros list*
%AMRoundRect*
0 Rectangle with rounded corners*
0 $1 Rounding radius*
0 $2 $3 $4 $5 $6 $7 $8 $9 X,Y pos of 4 corners*
0 Add a 4 corners polygon primitive as box body*
4,1,4,$2,$3,$4,$5,$6,$7,$8,$9,$2,$3,0*
0 Add four circle primitives for the rounded corners*
1,1,$1+$1,$2,$3*
1,1,$1+$1,$4,$5*
1,1,$1+$1,$6,$7*
1,1,$1+$1,$8,$9*
0 Add four rect primitives between the rounded corners*
20,1,$1+$1,$2,$3,$4,$5,0*
20,1,$1+$1,$4,$5,$6,$7,0*
20,1,$1+$1,$6,$7,$8,$9,0*
20,1,$1+$1,$8,$9,$2,$3,0*%
G04 Aperture macros list end*
%TA.AperFunction,ComponentPad*%
%ADD10R,1.700000X1.700000*%
%TD*%
%TA.AperFunction,ComponentPad*%
%ADD11C,1.700000*%
%TD*%
%TA.AperFunction,SMDPad,CuDef*%
%ADD12RoundRect,0.237500X0.250000X0.237500X-0.250000X0.237500X-0.250000X-0.237500X0.250000X-0.237500X0*%
%TD*%
%TA.AperFunction,SMDPad,CuDef*%
%ADD13RoundRect,0.160000X0.160000X-0.197500X0.160000X0.197500X-0.160000X0.197500X-0.160000X-0.197500X0*%
%TD*%
%TA.AperFunction,SMDPad,CuDef*%
%ADD14RoundRect,0.237500X-0.250000X-0.237500X0.250000X-0.237500X0.250000X0.237500X-0.250000X0.237500X0*%
%TD*%
%TA.AperFunction,SMDPad,CuDef*%
%ADD15R,1.700000X0.900000*%
%TD*%
%TA.AperFunction,SMDPad,CuDef*%
%ADD16RoundRect,0.200000X-0.200000X0.250000X-0.200000X-0.250000X0.200000X-0.250000X0.200000X0.250000X0*%
%TD*%
%TA.AperFunction,SMDPad,CuDef*%
%ADD17R,0.900000X1.700000*%
%TD*%
%TA.AperFunction,SMDPad,CuDef*%
%ADD18RoundRect,0.062500X0.350000X0.062500X-0.350000X0.062500X-0.350000X-0.062500X0.350000X-0.062500X0*%
%TD*%
%TA.AperFunction,SMDPad,CuDef*%
%ADD19RoundRect,0.062500X0.062500X0.350000X-0.062500X0.350000X-0.062500X-0.350000X0.062500X-0.350000X0*%
%TD*%
%TA.AperFunction,HeatsinkPad*%
%ADD20R,2.500000X2.500000*%
%TD*%
%TA.AperFunction,SMDPad,CuDef*%
%ADD21RoundRect,0.155000X0.212500X0.155000X-0.212500X0.155000X-0.212500X-0.155000X0.212500X-0.155000X0*%
%TD*%
%TA.AperFunction,SMDPad,CuDef*%
%ADD22RoundRect,0.237500X0.237500X-0.287500X0.237500X0.287500X-0.237500X0.287500X-0.237500X-0.287500X0*%
%TD*%
%TA.AperFunction,SMDPad,CuDef*%
%ADD23RoundRect,0.150000X0.150000X-0.512500X0.150000X0.512500X-0.150000X0.512500X-0.150000X-0.512500X0*%
%TD*%
%TA.AperFunction,SMDPad,CuDef*%
%ADD24RoundRect,0.237500X0.237500X-0.250000X0.237500X0.250000X-0.237500X0.250000X-0.237500X-0.250000X0*%
%TD*%
%TA.AperFunction,SMDPad,CuDef*%
%ADD25RoundRect,0.237500X-0.237500X0.250000X-0.237500X-0.250000X0.237500X-0.250000X0.237500X0.250000X0*%
%TD*%
%TA.AperFunction,SMDPad,CuDef*%
%ADD26R,1.070000X0.600000*%
%TD*%
%TA.AperFunction,SMDPad,CuDef*%
%ADD27R,1.500000X0.900000*%
%TD*%
%TA.AperFunction,HeatsinkPad*%
%ADD28C,0.600000*%
%TD*%
%TA.AperFunction,HeatsinkPad*%
%ADD29R,2.900000X2.900000*%
%TD*%
%TA.AperFunction,SMDPad,CuDef*%
%ADD30RoundRect,0.155000X-0.155000X0.212500X-0.155000X-0.212500X0.155000X-0.212500X0.155000X0.212500X0*%
%TD*%
%TA.AperFunction,ComponentPad*%
%ADD31C,0.700000*%
%TD*%
%TA.AperFunction,ComponentPad*%
%ADD32O,0.900000X2.400000*%
%TD*%
%TA.AperFunction,ComponentPad*%
%ADD33O,0.900000X1.700000*%
%TD*%
%TA.AperFunction,ViaPad*%
%ADD34C,0.600000*%
%TD*%
%TA.AperFunction,Conductor*%
%ADD35C,0.200000*%
%TD*%
%TA.AperFunction,Conductor*%
%ADD36C,0.400000*%
%TD*%
%TA.AperFunction,Conductor*%
%ADD37C,0.300000*%
%TD*%
%TA.AperFunction,Conductor*%
%ADD38C,0.500000*%
%TD*%
G04 APERTURE END LIST*
D10*
%TO.P,J3,1,Pin_1_1*%
%TO.N,+3V3*%
X77930000Y-51850000D03*
D11*
%TO.P,J3,2,Pin_2_2*%
%TO.N,RX*%
X80470000Y-51850000D03*
%TO.P,J3,3,Pin_3_3*%
%TO.N,TX*%
X83010000Y-51850000D03*
%TO.P,J3,4,Pin_4_4*%
%TO.N,GND*%
X85550000Y-51850000D03*
%TD*%
D12*
%TO.P,R9,1*%
%TO.N,GND*%
X90400000Y-66850000D03*
%TO.P,R9,2*%
%TO.N,Net-(U4-THERM)*%
X88575000Y-66850000D03*
%TD*%
D13*
%TO.P,R7,1*%
%TO.N,Net-(U4-STAT2)*%
X86300000Y-65850000D03*
%TO.P,R7,2*%
%TO.N,Net-(D5-K)*%
X86300000Y-64655000D03*
%TD*%
D10*
%TO.P,J4,1,Pin_1_1*%
%TO.N,GND*%
X90360000Y-51850000D03*
D11*
%TO.P,J4,2,Pin_2_2*%
%TO.N,IO1*%
X92900000Y-51850000D03*
%TO.P,J4,3,Pin_3_3*%
%TO.N,IO2*%
X95440000Y-51850000D03*
%TO.P,J4,4,Pin_4_4*%
%TO.N,+3V3*%
X97980000Y-51850000D03*
%TO.P,J4,5,Pin_5_5*%
X100520000Y-51850000D03*
%TO.P,J4,6,Pin_6_6*%
%TO.N,IO3*%
X103060000Y-51850000D03*
%TO.P,J4,7,Pin_7_7*%
%TO.N,IO4*%
X105600000Y-51850000D03*
%TO.P,J4,8,Pin_8_8*%
%TO.N,GND*%
X108140000Y-51850000D03*
%TD*%
D14*
%TO.P,R12,1*%
%TO.N,Vout*%
X94637500Y-67450000D03*
%TO.P,R12,2*%
%TO.N,DRV*%
X96462500Y-67450000D03*
%TD*%
D15*
%TO.P,SW2,1,1_1*%
%TO.N,Net-(U1-IO9)*%
X128400000Y-63750000D03*
%TO.P,SW2,2,2_2*%
%TO.N,GND*%
X128400000Y-60350000D03*
%TD*%
D16*
%TO.P,Q1,1,G_1*%
%TO.N,DRV*%
X96450000Y-69050000D03*
%TO.P,Q1,2,S_2*%
%TO.N,Vout*%
X94550000Y-69050000D03*
%TO.P,Q1,3,D_3*%
%TO.N,V_Switched*%
X95500000Y-71050000D03*
%TD*%
D17*
%TO.P,SW3,1,1_1*%
%TO.N,Net-(U1-EN)*%
X127500000Y-73350000D03*
%TO.P,SW3,2,2_2*%
%TO.N,GND*%
X130900000Y-73350000D03*
%TD*%
D18*
%TO.P,U4,1,OUT_1*%
%TO.N,Vout*%
X87300000Y-70050000D03*
%TO.P,U4,2,VPCC_2*%
%TO.N,VBUS*%
X87300000Y-69550000D03*
%TO.P,U4,3,SEL_3*%
%TO.N,GND*%
X87300000Y-69050000D03*
%TO.P,U4,4,PROG2_4*%
X87300000Y-68550000D03*
%TO.P,U4,5,THERM_5*%
%TO.N,Net-(U4-THERM)*%
X87300000Y-68050000D03*
D19*
%TO.P,U4,6,~{PG}_6*%
%TO.N,Net-(U4-~{PG})*%
X86362500Y-67112500D03*
%TO.P,U4,7,STAT2_7*%
%TO.N,Net-(U4-STAT2)*%
X85862500Y-67112500D03*
%TO.P,U4,8,STAT1/~{LBO}_8*%
%TO.N,Net-(U4-STAT1{slash}~{LBO})*%
X85362500Y-67112500D03*
%TO.P,U4,9,~{TE}_9*%
%TO.N,GND*%
X84862500Y-67112500D03*
%TO.P,U4,10,V_{SS}_10*%
X84362500Y-67112500D03*
D18*
%TO.P,U4,11,V_{SS}_11*%
X83425000Y-68050000D03*
%TO.P,U4,12,PROG3_12*%
X83425000Y-68550000D03*
%TO.P,U4,13,PROG1_13*%
%TO.N,Net-(U4-PROG1)*%
X83425000Y-69050000D03*
%TO.P,U4,14,V_{BAT}_14*%
%TO.N,BAT+*%
X83425000Y-69550000D03*
%TO.P,U4,15,V_{BAT}_15*%
X83425000Y-70050000D03*
D19*
%TO.P,U4,16,V_{BAT_SENSE}_16*%
X84362500Y-70987500D03*
%TO.P,U4,17,CE_17*%
%TO.N,VBUS*%
X84862500Y-70987500D03*
%TO.P,U4,18,IN_18*%
X85362500Y-70987500D03*
%TO.P,U4,19,IN_19*%
X85862500Y-70987500D03*
%TO.P,U4,20,OUT_20*%
%TO.N,Vout*%
X86362500Y-70987500D03*
D20*
%TO.P,U4,21,V_{SS}_21*%
%TO.N,GND*%
X85362500Y-69050000D03*
%TD*%
D21*
%TO.P,C1,1*%
%TO.N,+3V3*%
X101700000Y-72700000D03*
%TO.P,C1,2*%
%TO.N,Net-(U3-VOUT)*%
X100565000Y-72700000D03*
%TD*%
%TO.P,C3,1*%
%TO.N,VBUS*%
X81217500Y-61450000D03*
%TO.P,C3,2*%
%TO.N,GND*%
X80082500Y-61450000D03*
%TD*%
D10*
%TO.P,J7,1,Pin_1_1*%
%TO.N,BAT+*%
X123100000Y-47650000D03*
D11*
%TO.P,J7,2,Pin_2_2*%
%TO.N,GND*%
X125640000Y-47650000D03*
%TD*%
D22*
%TO.P,D3,1,K_1*%
%TO.N,Net-(D3-K)*%
X89150000Y-63225000D03*
%TO.P,D3,2,A_2*%
%TO.N,VBUS*%
X89150000Y-61475000D03*
%TD*%
D23*
%TO.P,U2,1,VDD_1*%
%TO.N,Vout*%
X90850000Y-70987500D03*
%TO.P,U2,2,GND_2*%
%TO.N,GND*%
X91800000Y-70987500D03*
%TO.P,U2,3,DELAY/M_DRV_3*%
%TO.N,Net-(U2-DELAY{slash}M_DRV)*%
X92750000Y-70987500D03*
%TO.P,U2,4,DONE_4*%
%TO.N,DONE*%
X92750000Y-68712500D03*
%TO.P,U2,5,DRV_5*%
%TO.N,DRV*%
X91800000Y-68712500D03*
%TO.P,U2,6,EN/ONE_SHOT_6*%
%TO.N,Vout*%
X90850000Y-68712500D03*
%TD*%
D24*
%TO.P,R14,1*%
%TO.N,Net-(J1-CC2)*%
X99250000Y-86762500D03*
%TO.P,R14,2*%
%TO.N,GND*%
X99250000Y-84937500D03*
%TD*%
D10*
%TO.P,J2,1,Pin_1_1*%
%TO.N,GND*%
X113210000Y-51850000D03*
D11*
%TO.P,J2,2,Pin_2_2*%
%TO.N,IO5*%
X115750000Y-51850000D03*
%TO.P,J2,3,Pin_3_3*%
%TO.N,IO6*%
X118290000Y-51850000D03*
%TO.P,J2,4,Pin_4_4*%
%TO.N,+3V3*%
X120830000Y-51850000D03*
%TO.P,J2,5,Pin_5_5*%
X123370000Y-51850000D03*
%TO.P,J2,6,Pin_6_6*%
%TO.N,IO7*%
X125910000Y-51850000D03*
%TO.P,J2,7,Pin_7_7*%
%TO.N,IO8*%
X128450000Y-51850000D03*
%TO.P,J2,8,Pin_8_8*%
%TO.N,GND*%
X130990000Y-51850000D03*
%TD*%
D24*
%TO.P,R13,1*%
%TO.N,Net-(J1-CC1)*%
X91850000Y-76862500D03*
%TO.P,R13,2*%
%TO.N,GND*%
X91850000Y-75037500D03*
%TD*%
D13*
%TO.P,R8,1*%
%TO.N,Net-(U4-STAT1{slash}~{LBO})*%
X85300000Y-65850000D03*
%TO.P,R8,2*%
%TO.N,Net-(D4-K)*%
X85300000Y-64655000D03*
%TD*%
D25*
%TO.P,R11,1*%
%TO.N,GND*%
X106350000Y-62037500D03*
%TO.P,R11,2*%
%TO.N,DONE*%
X106350000Y-63862500D03*
%TD*%
D26*
%TO.P,U3,1,GND_1*%
%TO.N,GND*%
X99240000Y-74600000D03*
%TO.P,U3,2,VOUT_2*%
%TO.N,Net-(U3-VOUT)*%
X99240000Y-72700000D03*
%TO.P,U3,3,VIN_3*%
%TO.N,Net-(U3-VIN)*%
X96760000Y-73650000D03*
%TD*%
D27*
%TO.P,U1,1,3V3_1*%
%TO.N,+3V3*%
X125650000Y-75850000D03*
%TO.P,U1,2,EN_2*%
%TO.N,Net-(U1-EN)*%
X125650000Y-74350000D03*
%TO.P,U1,3,IO4_3*%
%TO.N,IO4*%
X125650000Y-72850000D03*
%TO.P,U1,4,IO5_4*%
%TO.N,IO5*%
X125650000Y-71350000D03*
%TO.P,U1,5,IO6_5*%
%TO.N,IO6*%
X125650000Y-69850000D03*
%TO.P,U1,6,IO7_6*%
%TO.N,IO7*%
X125650000Y-68350000D03*
%TO.P,U1,7,IO8_7*%
%TO.N,IO8*%
X125650000Y-66850000D03*
%TO.P,U1,8,IO9_8*%
%TO.N,Net-(U1-IO9)*%
X125650000Y-65350000D03*
%TO.P,U1,9,GND_9*%
%TO.N,GND*%
X125650000Y-63850000D03*
%TO.P,U1,10,IO10_10*%
%TO.N,DONE*%
X108150000Y-63850000D03*
%TO.P,U1,11,IO20/RXD_11*%
%TO.N,RX*%
X108150000Y-65350000D03*
%TO.P,U1,12,IO21/TXD_12*%
%TO.N,TX*%
X108150000Y-66850000D03*
%TO.P,U1,13,IO18_13*%
%TO.N,D-*%
X108150000Y-68350000D03*
%TO.P,U1,14,IO19_14*%
%TO.N,D+*%
X108150000Y-69850000D03*
%TO.P,U1,15,IO3_15*%
%TO.N,IO3*%
X108150000Y-71350000D03*
%TO.P,U1,16,IO2_16*%
%TO.N,IO2*%
X108150000Y-72850000D03*
%TO.P,U1,17,IO1_17*%
%TO.N,IO1*%
X108150000Y-74350000D03*
%TO.P,U1,18,IO0_18*%
%TO.N,unconnected-(U1-IO0-Pad18)*%
X108150000Y-75850000D03*
D28*
%TO.P,U1,19,GND_19*%
%TO.N,GND*%
X117040000Y-70200000D03*
X117040000Y-69100000D03*
X116490000Y-70750000D03*
X116490000Y-69650000D03*
X116490000Y-68550000D03*
X115940000Y-70200000D03*
D29*
X115940000Y-69650000D03*
D28*
X115940000Y-69100000D03*
X115390000Y-70750000D03*
X115390000Y-69650000D03*
X115390000Y-68550000D03*
X114840000Y-70200000D03*
X114840000Y-69100000D03*
%TD*%
D30*
%TO.P,C2,1*%
%TO.N,V_Switched*%
X95500000Y-72482500D03*
%TO.P,C2,2*%
%TO.N,Net-(U3-VIN)*%
X95500000Y-73617500D03*
%TD*%
D12*
%TO.P,R16,1*%
%TO.N,+3V3*%
X129312500Y-75850000D03*
%TO.P,R16,2*%
%TO.N,Net-(U1-EN)*%
X127487500Y-75850000D03*
%TD*%
D14*
%TO.P,R10,1*%
%TO.N,GND*%
X80137500Y-69050000D03*
%TO.P,R10,2*%
%TO.N,Net-(U4-PROG1)*%
X81962500Y-69050000D03*
%TD*%
D22*
%TO.P,D5,1,K_1*%
%TO.N,Net-(D5-K)*%
X86150000Y-63225000D03*
%TO.P,D5,2,A_2*%
%TO.N,VBUS*%
X86150000Y-61475000D03*
%TD*%
D14*
%TO.P,R5,1*%
%TO.N,GND*%
X91887500Y-72750000D03*
%TO.P,R5,2*%
%TO.N,Net-(U2-DELAY{slash}M_DRV)*%
X93712500Y-72750000D03*
%TD*%
D12*
%TO.P,R15,1*%
%TO.N,+3V3*%
X129312500Y-65350000D03*
%TO.P,R15,2*%
%TO.N,Net-(U1-IO9)*%
X127487500Y-65350000D03*
%TD*%
D31*
%TO.P,J1,A1,GND_A1*%
%TO.N,GND*%
X90175000Y-78725000D03*
%TO.P,J1,A4,VBUS_A4*%
%TO.N,VBUS*%
X91025000Y-78725000D03*
%TO.P,J1,A5,CC1_A5*%
%TO.N,Net-(J1-CC1)*%
X91875000Y-78725000D03*
%TO.P,J1,A6,D+_A6*%
%TO.N,D+*%
X92725000Y-78725000D03*
%TO.P,J1,A7,D-_A7*%
%TO.N,D-*%
X93575000Y-78725000D03*
%TO.P,J1,A8,SBU1_A8*%
%TO.N,unconnected-(J1-SBU1-PadA8)*%
X94425000Y-78725000D03*
%TO.P,J1,A9,VBUS_A9*%
%TO.N,VBUS*%
X95275000Y-78725000D03*
%TO.P,J1,A12,GND_A12*%
%TO.N,GND*%
X96125000Y-78725000D03*
%TO.P,J1,B1,GND_B1*%
X96125000Y-80075000D03*
%TO.P,J1,B4,VBUS_B4*%
%TO.N,VBUS*%
X95275000Y-80075000D03*
%TO.P,J1,B5,CC2_B5*%
%TO.N,Net-(J1-CC2)*%
X94425000Y-80075000D03*
%TO.P,J1,B6,D+_B6*%
%TO.N,D+*%
X93575000Y-80075000D03*
%TO.P,J1,B7,D-_B7*%
%TO.N,D-*%
X92725000Y-80075000D03*
%TO.P,J1,B8,SBU2_B8*%
%TO.N,unconnected-(J1-SBU2-PadB8)*%
X91875000Y-80075000D03*
%TO.P,J1,B9,VBUS_B9*%
%TO.N,VBUS*%
X91025000Y-80075000D03*
%TO.P,J1,B12,GND_B12*%
%TO.N,GND*%
X90175000Y-80075000D03*
D32*
%TO.P,J1,SH,SHIELD_SH*%
X88825000Y-79705000D03*
D33*
X88825000Y-83085000D03*
D32*
X97475000Y-79705000D03*
D33*
X97475000Y-83085000D03*
%TD*%
D22*
%TO.P,D4,1,K_1*%
%TO.N,Net-(D4-K)*%
X83150000Y-63225000D03*
%TO.P,D4,2,A_2*%
%TO.N,VBUS*%
X83150000Y-61475000D03*
%TD*%
D13*
%TO.P,R6,1*%
%TO.N,Net-(U4-~{PG})*%
X87300000Y-66147500D03*
%TO.P,R6,2*%
%TO.N,Net-(D3-K)*%
X87300000Y-64952500D03*
%TD*%
D34*
%TO.N,+3V3*%
X123750000Y-75850000D03*
X120850000Y-54350000D03*
X101650000Y-71850000D03*
X123350000Y-54350000D03*
X130750000Y-65350000D03*
X97950000Y-54050000D03*
X77970000Y-54450000D03*
X100550000Y-54050000D03*
X131150000Y-75850000D03*
%TO.N,RX*%
X81750000Y-59050000D03*
X99050000Y-65350000D03*
%TO.N,TX*%
X83650000Y-57950000D03*
X101850000Y-66150000D03*
%TO.N,GND*%
X128400000Y-58800000D03*
X99250000Y-83850000D03*
X90350000Y-54150000D03*
X132150000Y-73350000D03*
X104962500Y-62037500D03*
X85550000Y-54450000D03*
X130950000Y-54250000D03*
X125700000Y-49700000D03*
X90950000Y-73550000D03*
X80150000Y-67950000D03*
X91850000Y-73950000D03*
X87550000Y-81350000D03*
X88750000Y-69050000D03*
X80150000Y-62350000D03*
X108050000Y-54050000D03*
X99250000Y-75450000D03*
X113210000Y-54310000D03*
X90900000Y-72300000D03*
X83450000Y-67112500D03*
X96125000Y-80950000D03*
X90175000Y-81525000D03*
X96350000Y-83050000D03*
X90450000Y-65750000D03*
%TO.N,IO1*%
X104250000Y-74250000D03*
%TO.N,IO2*%
X105450000Y-73350000D03*
%TO.N,Vout*%
X90150000Y-69850000D03*
X87950000Y-71350000D03*
X93550000Y-68550000D03*
%TO.N,VBUS*%
X95025000Y-83450000D03*
X87250000Y-74150000D03*
X81150000Y-62650000D03*
%TO.N,BAT+*%
X82950000Y-72150000D03*
%TO.N,Net-(J1-CC2)*%
X96950000Y-86750000D03*
%TO.N,D-*%
X98800000Y-77100000D03*
%TD*%
%TO.N,GND*%
D35*
X125640000Y-49640000D02*
X125640000Y-47650000D01*
X125700000Y-49700000D02*
X125640000Y-49640000D01*
%TO.N,+3V3*%
X120830000Y-54330000D02*
X120850000Y-54350000D01*
X77930000Y-54410000D02*
X77930000Y-51850000D01*
X97950000Y-54050000D02*
X97950000Y-51880000D01*
X100520000Y-53480000D02*
X100520000Y-51850000D01*
X77970000Y-54450000D02*
X77930000Y-54410000D01*
X123750000Y-75850000D02*
X123650000Y-75850000D01*
D36*
X101700000Y-72700000D02*
X101700000Y-71900000D01*
D35*
X125650000Y-75850000D02*
X123750000Y-75850000D01*
D36*
X101650000Y-71850000D02*
X101700000Y-71900000D01*
D35*
X129312500Y-65350000D02*
X130750000Y-65350000D01*
X100550000Y-53510000D02*
X100520000Y-53480000D01*
X100550000Y-54050000D02*
X100550000Y-53510000D01*
X129312500Y-75850000D02*
X131150000Y-75850000D01*
X120830000Y-51850000D02*
X120830000Y-54330000D01*
X97950000Y-51880000D02*
X97980000Y-51850000D01*
X123370000Y-51850000D02*
X123370000Y-54330000D01*
X123370000Y-54330000D02*
X123350000Y-54350000D01*
%TO.N,RX*%
X108150000Y-65350000D02*
X99050000Y-65350000D01*
X80470000Y-57770000D02*
X80470000Y-51850000D01*
X81750000Y-59050000D02*
X80470000Y-57770000D01*
%TO.N,TX*%
X102550000Y-66850000D02*
X101850000Y-66150000D01*
X83650000Y-57950000D02*
X83010000Y-57310000D01*
X83010000Y-57310000D02*
X83010000Y-51850000D01*
X108150000Y-66850000D02*
X102550000Y-66850000D01*
%TO.N,GND*%
X97475000Y-80188025D02*
X96713025Y-80950000D01*
X85550000Y-51850000D02*
X85550000Y-54450000D01*
X91699999Y-71750000D02*
X91800000Y-71649999D01*
X85362500Y-69050000D02*
X85362500Y-69025000D01*
X113210000Y-54310000D02*
X113250000Y-54350000D01*
X83425000Y-68550000D02*
X83425000Y-68050000D01*
X87550000Y-81350000D02*
X87550000Y-82450000D01*
X90350000Y-54150000D02*
X90360000Y-54140000D01*
X80137500Y-69050000D02*
X80137500Y-67962500D01*
X108050000Y-54050000D02*
X108050000Y-51940000D01*
D37*
X85362500Y-69025000D02*
X83450000Y-67112500D01*
D35*
X91750000Y-72750000D02*
X90950000Y-73550000D01*
X88250000Y-68550000D02*
X88750000Y-69050000D01*
X106350000Y-62037500D02*
X104962500Y-62037500D01*
X132150000Y-73350000D02*
X132250000Y-73350000D01*
X83450000Y-67300000D02*
X83425000Y-67325000D01*
X83425000Y-67325000D02*
X83425000Y-68050000D01*
X91887500Y-72750000D02*
X91750000Y-72750000D01*
D37*
X96125000Y-80075000D02*
X96125000Y-78725000D01*
D35*
X87300000Y-69050000D02*
X88750000Y-69050000D01*
X83450000Y-67112500D02*
X83450000Y-67300000D01*
X99250000Y-75450000D02*
X99240000Y-75440000D01*
D36*
X99240000Y-74600000D02*
X99240000Y-75440000D01*
D35*
X87300000Y-68550000D02*
X88250000Y-68550000D01*
D37*
X90175000Y-80075000D02*
X90175000Y-78725000D01*
D35*
X113210000Y-51850000D02*
X113210000Y-54310000D01*
X91250000Y-72150000D02*
X91650000Y-71750000D01*
X108050000Y-51940000D02*
X108140000Y-51850000D01*
X91800000Y-71649999D02*
X91800000Y-70987500D01*
X130990000Y-51850000D02*
X130990000Y-54210000D01*
X128400000Y-60350000D02*
X128400000Y-58800000D01*
X91050000Y-72150000D02*
X91250000Y-72150000D01*
X97475000Y-83085000D02*
X96385000Y-83085000D01*
D36*
X80082500Y-62282500D02*
X80150000Y-62350000D01*
D35*
X90900000Y-72300000D02*
X91050000Y-72150000D01*
X84362500Y-67112500D02*
X83450000Y-67112500D01*
X97475000Y-79705000D02*
X97475000Y-80188025D01*
X84862500Y-67112500D02*
X84362500Y-67112500D01*
X87550000Y-82450000D02*
X88185000Y-83085000D01*
X91650000Y-71750000D02*
X91699999Y-71750000D01*
X87550000Y-80250000D02*
X88095000Y-79705000D01*
X90360000Y-54140000D02*
X90360000Y-51850000D01*
X99250000Y-84937500D02*
X99250000Y-83850000D01*
X88185000Y-83085000D02*
X88825000Y-83085000D01*
X90400000Y-65800000D02*
X90450000Y-65750000D01*
X80137500Y-67962500D02*
X80150000Y-67950000D01*
X96713025Y-80950000D02*
X96125000Y-80950000D01*
X96385000Y-83085000D02*
X96350000Y-83050000D01*
D36*
X80082500Y-61450000D02*
X80082500Y-62282500D01*
D35*
X90400000Y-66850000D02*
X90400000Y-65800000D01*
D37*
X96125000Y-80075000D02*
X96125000Y-80950000D01*
D35*
X130900000Y-73350000D02*
X132150000Y-73350000D01*
X130990000Y-54210000D02*
X130950000Y-54250000D01*
X91850000Y-75037500D02*
X91850000Y-73950000D01*
D37*
X90175000Y-80075000D02*
X90175000Y-81525000D01*
D35*
X87550000Y-81350000D02*
X87550000Y-80250000D01*
X88095000Y-79705000D02*
X88825000Y-79705000D01*
%TO.N,Net-(U4-THERM)*%
X87300000Y-68050000D02*
X87375000Y-68050000D01*
X87375000Y-68050000D02*
X88575000Y-66850000D01*
%TO.N,Net-(U4-STAT2)*%
X86300000Y-66200000D02*
X86300000Y-65850000D01*
X85862500Y-67112500D02*
X85862500Y-66637500D01*
X85862500Y-66637500D02*
X86300000Y-66200000D01*
%TO.N,Net-(D5-K)*%
D37*
X86300000Y-63375000D02*
X86150000Y-63225000D01*
X86300000Y-64655000D02*
X86300000Y-63375000D01*
%TO.N,IO1*%
D35*
X104250000Y-74250000D02*
X108050000Y-74250000D01*
X108050000Y-74250000D02*
X108150000Y-74350000D01*
%TO.N,IO2*%
X107650000Y-73350000D02*
X108150000Y-72850000D01*
X105450000Y-73350000D02*
X107650000Y-73350000D01*
%TO.N,IO3*%
X103050000Y-51860000D02*
X103060000Y-51850000D01*
X109369754Y-60869754D02*
X103050000Y-54550000D01*
X108150000Y-71350000D02*
X108789508Y-71350000D01*
X103050000Y-54550000D02*
X103050000Y-51860000D01*
X109369754Y-70769754D02*
X109369754Y-60869754D01*
X108789508Y-71350000D02*
X109369754Y-70769754D01*
%TO.N,IO4*%
X105600000Y-55400000D02*
X105600000Y-51850000D01*
X123050000Y-72850000D02*
X105600000Y-55400000D01*
X125650000Y-72850000D02*
X123050000Y-72850000D01*
%TO.N,Vout*%
D37*
X87750000Y-70500000D02*
X87750000Y-71150000D01*
X86362500Y-70987500D02*
X86725000Y-71350000D01*
X90850000Y-70050000D02*
X90850000Y-70987500D01*
X90650000Y-69850000D02*
X90850000Y-70050000D01*
X94550000Y-69050000D02*
X94050000Y-69050000D01*
X90850000Y-69650000D02*
X90850000Y-68712500D01*
X86725000Y-71350000D02*
X87950000Y-71350000D01*
X94050000Y-69050000D02*
X93550000Y-68550000D01*
X90150000Y-69850000D02*
X90650000Y-69850000D01*
X94550000Y-69050000D02*
X94550000Y-67537500D01*
X90650000Y-69850000D02*
X90850000Y-69650000D01*
X87750000Y-71150000D02*
X87950000Y-71350000D01*
X87300000Y-70050000D02*
X87750000Y-70500000D01*
D35*
X94550000Y-67537500D02*
X94637500Y-67450000D01*
%TO.N,DRV*%
X96450000Y-67462500D02*
X96462500Y-67450000D01*
X91800000Y-69374999D02*
X92225001Y-69800000D01*
X95700000Y-69800000D02*
X96450000Y-69050000D01*
X91800000Y-68712500D02*
X91800000Y-69374999D01*
X96450000Y-69050000D02*
X96450000Y-67462500D01*
X92225001Y-69800000D02*
X95700000Y-69800000D01*
%TO.N,Net-(U1-IO9)*%
X127487500Y-65350000D02*
X125650000Y-65350000D01*
X126800000Y-65350000D02*
X125650000Y-65350000D01*
X128400000Y-63750000D02*
X126800000Y-65350000D01*
%TO.N,V_Switched*%
D36*
X95500000Y-71050000D02*
X95500000Y-72482500D01*
%TO.N,Net-(U1-EN)*%
D35*
X127487500Y-75850000D02*
X125987500Y-74350000D01*
X127500000Y-73350000D02*
X126500000Y-74350000D01*
X126500000Y-74350000D02*
X125650000Y-74350000D01*
X125987500Y-74350000D02*
X125650000Y-74350000D01*
%TO.N,VBUS*%
D36*
X83150000Y-60450000D02*
X83150000Y-61475000D01*
X81217500Y-60982500D02*
X82150000Y-60050000D01*
X85650000Y-60050000D02*
X86150000Y-60550000D01*
D37*
X85837500Y-71962500D02*
X84862500Y-70987500D01*
X85862500Y-71962500D02*
X85837500Y-71962500D01*
D36*
X89150000Y-60950000D02*
X89150000Y-61475000D01*
D37*
X85362500Y-71462500D02*
X85362500Y-70987500D01*
X87250000Y-73350000D02*
X88950000Y-71650000D01*
D38*
X95025000Y-83450000D02*
X92850000Y-83450000D01*
D36*
X81217500Y-61450000D02*
X81217500Y-60982500D01*
X85650000Y-60050000D02*
X88250000Y-60050000D01*
D38*
X95275000Y-80075000D02*
X95275000Y-78725000D01*
D36*
X81150000Y-61517500D02*
X81217500Y-61450000D01*
X81150000Y-62650000D02*
X81150000Y-61517500D01*
D37*
X85862500Y-71962500D02*
X85362500Y-71462500D01*
X88950000Y-70250000D02*
X88950000Y-70169239D01*
D38*
X92850000Y-83450000D02*
X91025000Y-81625000D01*
D37*
X88330761Y-69550000D02*
X87300000Y-69550000D01*
D36*
X82150000Y-60050000D02*
X82750000Y-60050000D01*
D38*
X91025000Y-80075000D02*
X91025000Y-78725000D01*
X91025000Y-78725000D02*
X91025000Y-77925000D01*
D36*
X88250000Y-60050000D02*
X89150000Y-60950000D01*
X86150000Y-60550000D02*
X86150000Y-61475000D01*
D37*
X88950000Y-71650000D02*
X88950000Y-70250000D01*
X85862500Y-71962500D02*
X85862500Y-70987500D01*
D36*
X87250000Y-73350000D02*
X87250000Y-74150000D01*
D37*
X88950000Y-70169239D02*
X88330761Y-69550000D01*
D38*
X91025000Y-81625000D02*
X91025000Y-80075000D01*
D37*
X87250000Y-73350000D02*
X85862500Y-71962500D01*
D38*
X91025000Y-77925000D02*
X87250000Y-74150000D01*
D36*
X82750000Y-60050000D02*
X85650000Y-60050000D01*
X82750000Y-60050000D02*
X83150000Y-60450000D01*
%TO.N,Net-(U4-~{PG})*%
D35*
X86362500Y-67112500D02*
X87087500Y-67112500D01*
X87087500Y-67112500D02*
X87300000Y-66900000D01*
X87300000Y-66900000D02*
X87300000Y-66147500D01*
%TO.N,Net-(U4-STAT1{slash}~{LBO})*%
X85362500Y-65912500D02*
X85300000Y-65850000D01*
X85362500Y-67112500D02*
X85362500Y-65912500D01*
%TO.N,Net-(U4-PROG1)*%
X83425000Y-69050000D02*
X81962500Y-69050000D01*
%TO.N,BAT+*%
D37*
X82950000Y-71450000D02*
X83150000Y-71250000D01*
X82950000Y-72150000D02*
X82950000Y-71450000D01*
X83425000Y-70975000D02*
X83150000Y-71250000D01*
X84100000Y-71250000D02*
X83150000Y-71250000D01*
X83425000Y-70050000D02*
X83425000Y-70975000D01*
X84362500Y-70987500D02*
X84100000Y-71250000D01*
X83425000Y-69550000D02*
X83425000Y-70050000D01*
%TO.N,Net-(U3-VOUT)*%
D36*
X99240000Y-72700000D02*
X100565000Y-72700000D01*
%TO.N,Net-(D3-K)*%
D37*
X87422500Y-64952500D02*
X89150000Y-63225000D01*
D35*
X87300000Y-64952500D02*
X87422500Y-64952500D01*
%TO.N,Net-(U2-DELAY{slash}M_DRV)*%
X92750000Y-71787500D02*
X93712500Y-72750000D01*
X92750000Y-70987500D02*
X92750000Y-71787500D01*
%TO.N,DONE*%
X95562500Y-63862500D02*
X106350000Y-63862500D01*
X92750000Y-66650000D02*
X95550000Y-63850000D01*
X95550000Y-63850000D02*
X95562500Y-63862500D01*
X92750000Y-68712500D02*
X92750000Y-66650000D01*
X108137500Y-63862500D02*
X108150000Y-63850000D01*
X106350000Y-63862500D02*
X108137500Y-63862500D01*
%TO.N,Net-(J1-CC2)*%
X96950000Y-86750000D02*
X96962500Y-86762500D01*
X96962500Y-86762500D02*
X99250000Y-86762500D01*
%TO.N,IO5*%
X123250000Y-71350000D02*
X115750000Y-63850000D01*
X115750000Y-63850000D02*
X115750000Y-51850000D01*
X125650000Y-71350000D02*
X123250000Y-71350000D01*
%TO.N,IO6*%
X118290000Y-64290000D02*
X118290000Y-51850000D01*
X125650000Y-69850000D02*
X123850000Y-69850000D01*
X123850000Y-69850000D02*
X118290000Y-64290000D01*
%TO.N,IO7*%
X125910000Y-57290000D02*
X125910000Y-51850000D01*
X123250000Y-67350000D02*
X123250000Y-59950000D01*
X124250000Y-68350000D02*
X123250000Y-67350000D01*
X125650000Y-68350000D02*
X124250000Y-68350000D01*
X123250000Y-59950000D02*
X125910000Y-57290000D01*
%TO.N,IO8*%
X124350000Y-66550000D02*
X124350000Y-60950000D01*
X124650000Y-66850000D02*
X124350000Y-66550000D01*
X125650000Y-66850000D02*
X124650000Y-66850000D01*
X128450000Y-56850000D02*
X128450000Y-51850000D01*
X124350000Y-60950000D02*
X128450000Y-56850000D01*
%TO.N,Net-(J1-CC1)*%
X91875000Y-76887500D02*
X91850000Y-76862500D01*
X91875000Y-78725000D02*
X91875000Y-76887500D01*
%TO.N,Net-(D4-K)*%
D37*
X85300000Y-64655000D02*
X84580000Y-64655000D01*
X84580000Y-64655000D02*
X83150000Y-63225000D01*
%TO.N,Net-(U3-VIN)*%
D35*
X96727500Y-73617500D02*
X96760000Y-73650000D01*
D36*
X95500000Y-73617500D02*
X96727500Y-73617500D01*
%TO.N,D-*%
D35*
X107450000Y-69050000D02*
X108150000Y-68350000D01*
X99000000Y-77100000D02*
X107050000Y-69050000D01*
X98800000Y-77100000D02*
X99000000Y-77100000D01*
X107050000Y-69050000D02*
X107450000Y-69050000D01*
%TO.N,D+*%
X107150000Y-69850000D02*
X108150000Y-69850000D01*
X99150000Y-77850000D02*
X107150000Y-69850000D01*
X92725000Y-78725000D02*
X92725000Y-78230026D01*
X92725000Y-78230026D02*
X93105026Y-77850000D01*
X93105026Y-77850000D02*
X99150000Y-77850000D01*
%TD*%
%TA.AperFunction,Conductor*%
%TO.N,GND*%
G36*
X117393039Y-68169685D02*
G01*
X117438794Y-68222489D01*
X117450000Y-68274000D01*
X117450000Y-71026000D01*
X117430315Y-71093039D01*
X117377511Y-71138794D01*
X117326000Y-71150000D01*
X114574000Y-71150000D01*
X114506961Y-71130315D01*
X114461206Y-71077511D01*
X114450000Y-71026000D01*
X114450000Y-68274000D01*
X114469685Y-68206961D01*
X114522489Y-68161206D01*
X114574000Y-68150000D01*
X117326000Y-68150000D01*
X117393039Y-68169685D01*
G37*
%TD.AperFunction*%
%TD*%
%TA.AperFunction,Conductor*%
%TO.N,GND*%
G36*
X84039765Y-67009685D02*
G01*
X84046350Y-67015752D01*
X84047433Y-67020668D01*
X84047433Y-67204331D01*
X84044006Y-67212604D01*
X84039765Y-67215314D01*
X83575233Y-67385835D01*
X83566285Y-67385469D01*
X83560441Y-67379447D01*
X83489185Y-67212604D01*
X83448394Y-67117093D01*
X83448297Y-67108141D01*
X83448395Y-67107905D01*
X83560442Y-66845550D01*
X83566842Y-66839289D01*
X83575233Y-66839164D01*
X84039765Y-67009685D01*
G37*
%TD.AperFunction*%
%TD*%
%TA.AperFunction,Conductor*%
%TO.N,GND*%
G36*
X83693868Y-66940097D02*
G01*
X83694614Y-66941223D01*
X83973981Y-67421095D01*
X83975182Y-67429968D01*
X83972143Y-67435254D01*
X83772754Y-67634643D01*
X83764481Y-67638070D01*
X83758595Y-67636481D01*
X83278723Y-67357114D01*
X83273298Y-67349990D01*
X83274499Y-67341116D01*
X83275234Y-67340005D01*
X83446476Y-67111315D01*
X83448815Y-67108976D01*
X83677492Y-66937744D01*
X83686167Y-66935529D01*
X83693868Y-66940097D01*
G37*
%TD.AperFunction*%
%TD*%
%TA.AperFunction,Conductor*%
%TO.N,VBUS*%
G36*
X87448438Y-73555994D02*
G01*
X87451691Y-73562255D01*
X87545359Y-74098963D01*
X87543405Y-74107703D01*
X87535845Y-74112501D01*
X87535497Y-74112556D01*
X87251664Y-74153327D01*
X87248336Y-74153327D01*
X86964502Y-74112556D01*
X86956801Y-74107988D01*
X86954585Y-74099311D01*
X86954640Y-74098963D01*
X87048309Y-73562255D01*
X87053107Y-73554695D01*
X87059835Y-73552567D01*
X87440165Y-73552567D01*
X87448438Y-73555994D01*
G37*
%TD.AperFunction*%
%TD*%
%TA.AperFunction,Conductor*%
%TO.N,VBUS*%
G36*
X87495124Y-73975812D02*
G01*
X87842295Y-74387456D01*
X87845009Y-74395990D01*
X87841624Y-74403272D01*
X87503272Y-74741624D01*
X87494999Y-74745051D01*
X87487456Y-74742295D01*
X87075812Y-74395124D01*
X87071697Y-74387171D01*
X87073989Y-74379168D01*
X87246476Y-74148815D01*
X87248815Y-74146476D01*
X87479168Y-73973989D01*
X87487844Y-73971774D01*
X87495124Y-73975812D01*
G37*
%TD.AperFunction*%
%TD*%
%TA.AperFunction,Conductor*%
%TO.N,GND*%
G36*
X83429684Y-67110768D02*
G01*
X83716014Y-67222937D01*
X83722467Y-67229146D01*
X83722640Y-67238099D01*
X83722537Y-67238351D01*
X83528428Y-67701751D01*
X83528008Y-67702753D01*
X83521651Y-67709060D01*
X83517217Y-67709933D01*
X83333579Y-67709933D01*
X83325306Y-67706506D01*
X83322420Y-67701751D01*
X83176318Y-67238351D01*
X83175913Y-67237064D01*
X83176694Y-67228144D01*
X83182099Y-67222956D01*
X83420445Y-67111070D01*
X83429389Y-67110657D01*
X83429684Y-67110768D01*
G37*
%TD.AperFunction*%
%TD*%
M02*
