M48
; DRILL file KiCad 10.0.3 date 2026-09-21T00:00:41
; FORMAT={-:-/ absolute / metric / decimal}
; #@! TF.CreationDate,2026-09-21T00:00:41+08:00
; #@! TF.GenerationSoftware,Kicad,Pcbnew,10.0.3
; #@! TF.FileFunction,Plated,1,4,PTH
FMAT,2
METRIC
; #@! TA.AperFunction,Plated,PTH,ComponentDrill
T1C0.200
; #@! TA.AperFunction,Plated,PTH,ViaDrill
T2C0.300
; #@! TA.AperFunction,Plated,PTH,ComponentDrill
T3C0.400
; #@! TA.AperFunction,Plated,PTH,ComponentDrill
T4C0.600
; #@! TA.AperFunction,Plated,PTH,ComponentDrill
T5C1.000
%
G90
G05
T1
X114.84Y-69.1
X114.84Y-70.2
X115.39Y-68.55
X115.39Y-69.65
X115.39Y-70.75
X115.94Y-69.1
X115.94Y-70.2
X116.49Y-68.55
X116.49Y-69.65
X116.49Y-70.75
X117.04Y-69.1
X117.04Y-70.2
T2
X77.97Y-54.45
X80.15Y-62.35
X80.15Y-67.95
X81.15Y-62.65
X81.75Y-59.05
X82.95Y-72.15
X83.45Y-67.112
X83.65Y-57.95
X85.55Y-54.45
X87.25Y-74.15
X87.55Y-81.35
X87.95Y-71.35
X88.75Y-69.05
X90.15Y-69.85
X90.175Y-81.525
X90.35Y-54.15
X90.45Y-65.75
X90.9Y-72.3
X90.95Y-73.55
X91.85Y-73.95
X93.55Y-68.55
X95.025Y-83.45
X96.125Y-80.95
X96.35Y-83.05
X96.95Y-86.75
X97.95Y-54.05
X98.8Y-77.1
X99.05Y-65.35
X99.25Y-75.45
X99.25Y-83.85
X100.55Y-54.05
X101.65Y-71.85
X101.85Y-66.15
X104.25Y-74.25
X104.962Y-62.037
X105.45Y-73.35
X108.05Y-54.05
X113.21Y-54.31
X120.85Y-54.35
X123.35Y-54.35
X123.75Y-75.85
X125.7Y-49.7
X128.4Y-58.8
X130.75Y-65.35
X130.95Y-54.25
X131.15Y-75.85
X132.15Y-73.35
T3
X90.175Y-78.725
X90.175Y-80.075
X91.025Y-78.725
X91.025Y-80.075
X91.875Y-78.725
X91.875Y-80.075
X92.725Y-78.725
X92.725Y-80.075
X93.575Y-78.725
X93.575Y-80.075
X94.425Y-78.725
X94.425Y-80.075
X95.275Y-78.725
X95.275Y-80.075
X96.125Y-78.725
X96.125Y-80.075
T5
X77.93Y-51.85
X80.47Y-51.85
X83.01Y-51.85
X85.55Y-51.85
X90.36Y-51.85
X92.9Y-51.85
X95.44Y-51.85
X97.98Y-51.85
X100.52Y-51.85
X103.06Y-51.85
X105.6Y-51.85
X108.14Y-51.85
X113.21Y-51.85
X115.75Y-51.85
X118.29Y-51.85
X120.83Y-51.85
X123.1Y-47.65
X123.37Y-51.85
X125.64Y-47.65
X125.91Y-51.85
X128.45Y-51.85
X130.99Y-51.85
T4
G00X88.825Y-78.955
M15
G01X88.825Y-80.455
M16
G05
G00X88.825Y-82.685
M15
G01X88.825Y-83.485
M16
G05
G00X97.475Y-78.955
M15
G01X97.475Y-80.455
M16
G05
G00X97.475Y-82.685
M15
G01X97.475Y-83.485
M16
G05
M30
