%TF.GenerationSoftware,KiCad,Pcbnew,10.0.3*%
%TF.CreationDate,2026-09-21T00:00:47+08:00*%
%TF.ProjectId,YieldSmart,5969656c-6453-46d6-9172-742e6b696361,rev?*%
%TF.SameCoordinates,Original*%
%TF.FileFunction,Copper,L2,Inr*%
%TF.FilePolarity,Positive*%
%FSLAX46Y46*%
G04 Gerber Fmt 4.6, Leading zero omitted, Abs format (unit mm)*
G04 Created by KiCad (PCBNEW 10.0.3) date 2026-09-21 00:00:47*
%MOMM*%
%LPD*%
G01*
G04 APERTURE LIST*
%TA.AperFunction,ComponentPad*%
%ADD10R,1.700000X1.700000*%
%TD*%
%TA.AperFunction,ComponentPad*%
%ADD11C,1.700000*%
%TD*%
%TA.AperFunction,HeatsinkPad*%
%ADD12C,0.600000*%
%TD*%
%TA.AperFunction,ComponentPad*%
%ADD13C,0.700000*%
%TD*%
%TA.AperFunction,ComponentPad*%
%ADD14O,0.900000X2.400000*%
%TD*%
%TA.AperFunction,ComponentPad*%
%ADD15O,0.900000X1.700000*%
%TD*%
%TA.AperFunction,ViaPad*%
%ADD16C,0.600000*%
%TD*%
G04 APERTURE END LIST*
D10*
%TO.N,+3V3*%
%TO.C,J3*%
X77930000Y-51850000D03*
D11*
%TO.N,RX*%
X80470000Y-51850000D03*
%TO.N,TX*%
X83010000Y-51850000D03*
%TO.N,GND*%
X85550000Y-51850000D03*
%TD*%
D10*
%TO.N,GND*%
%TO.C,J4*%
X90360000Y-51850000D03*
D11*
%TO.N,IO1*%
X92900000Y-51850000D03*
%TO.N,IO2*%
X95440000Y-51850000D03*
%TO.N,+3V3*%
X97980000Y-51850000D03*
X100520000Y-51850000D03*
%TO.N,IO3*%
X103060000Y-51850000D03*
%TO.N,IO4*%
X105600000Y-51850000D03*
%TO.N,GND*%
X108140000Y-51850000D03*
%TD*%
D10*
%TO.N,BAT+*%
%TO.C,J7*%
X123100000Y-47650000D03*
D11*
%TO.N,GND*%
X125640000Y-47650000D03*
%TD*%
D10*
%TO.N,GND*%
%TO.C,J2*%
X113210000Y-51850000D03*
D11*
%TO.N,IO5*%
X115750000Y-51850000D03*
%TO.N,IO6*%
X118290000Y-51850000D03*
%TO.N,+3V3*%
X120830000Y-51850000D03*
X123370000Y-51850000D03*
%TO.N,IO7*%
X125910000Y-51850000D03*
%TO.N,IO8*%
X128450000Y-51850000D03*
%TO.N,GND*%
X130990000Y-51850000D03*
%TD*%
D12*
%TO.N,GND*%
%TO.C,U1*%
X117040000Y-70200000D03*
X117040000Y-69100000D03*
X116490000Y-70750000D03*
X116490000Y-69650000D03*
X116490000Y-68550000D03*
X115940000Y-70200000D03*
X115940000Y-69100000D03*
X115390000Y-70750000D03*
X115390000Y-69650000D03*
X115390000Y-68550000D03*
X114840000Y-70200000D03*
X114840000Y-69100000D03*
%TD*%
D13*
%TO.N,GND*%
%TO.C,J1*%
X90175000Y-78725000D03*
%TO.N,VBUS*%
X91025000Y-78725000D03*
%TO.N,Net-(J1-CC1)*%
X91875000Y-78725000D03*
%TO.N,D+*%
X92725000Y-78725000D03*
%TO.N,D-*%
X93575000Y-78725000D03*
%TO.N,unconnected-(J1-SBU1-PadA8)*%
X94425000Y-78725000D03*
%TO.N,VBUS*%
X95275000Y-78725000D03*
%TO.N,GND*%
X96125000Y-78725000D03*
X96125000Y-80075000D03*
%TO.N,VBUS*%
X95275000Y-80075000D03*
%TO.N,Net-(J1-CC2)*%
X94425000Y-80075000D03*
%TO.N,D+*%
X93575000Y-80075000D03*
%TO.N,D-*%
X92725000Y-80075000D03*
%TO.N,unconnected-(J1-SBU2-PadB8)*%
X91875000Y-80075000D03*
%TO.N,VBUS*%
X91025000Y-80075000D03*
%TO.N,GND*%
X90175000Y-80075000D03*
D14*
X88825000Y-79705000D03*
D15*
X88825000Y-83085000D03*
D14*
X97475000Y-79705000D03*
D15*
X97475000Y-83085000D03*
%TD*%
D16*
%TO.N,+3V3*%
X123750000Y-75850000D03*
X120850000Y-54350000D03*
X101650000Y-71850000D03*
X123350000Y-54350000D03*
X130750000Y-65350000D03*
X97950000Y-54050000D03*
X77970000Y-54450000D03*
X100550000Y-54050000D03*
X131150000Y-75850000D03*
%TO.N,RX*%
X81750000Y-59050000D03*
X99050000Y-65350000D03*
%TO.N,TX*%
X83650000Y-57950000D03*
X101850000Y-66150000D03*
%TO.N,GND*%
X128400000Y-58800000D03*
X99250000Y-83850000D03*
X90350000Y-54150000D03*
X132150000Y-73350000D03*
X104962500Y-62037500D03*
X85550000Y-54450000D03*
X130950000Y-54250000D03*
X125700000Y-49700000D03*
X90950000Y-73550000D03*
X80150000Y-67950000D03*
X91850000Y-73950000D03*
X87550000Y-81350000D03*
X88750000Y-69050000D03*
X80150000Y-62350000D03*
X108050000Y-54050000D03*
X99250000Y-75450000D03*
X113210000Y-54310000D03*
X90900000Y-72300000D03*
X83450000Y-67112500D03*
X96125000Y-80950000D03*
X90175000Y-81525000D03*
X96350000Y-83050000D03*
X90450000Y-65750000D03*
%TO.N,IO1*%
X104250000Y-74250000D03*
%TO.N,IO2*%
X105450000Y-73350000D03*
%TO.N,Vout*%
X90150000Y-69850000D03*
X87950000Y-71350000D03*
X93550000Y-68550000D03*
%TO.N,VBUS*%
X95025000Y-83450000D03*
X87250000Y-74150000D03*
X81150000Y-62650000D03*
%TO.N,BAT+*%
X82950000Y-72150000D03*
%TO.N,Net-(J1-CC2)*%
X96950000Y-86750000D03*
%TO.N,D-*%
X98800000Y-77100000D03*
%TD*%
%TA.AperFunction,Conductor*%
%TO.N,GND*%
G36*
X133392539Y-45420185D02*
G01*
X133438294Y-45472989D01*
X133449500Y-45524500D01*
X133449500Y-88225500D01*
X133429815Y-88292539D01*
X133377011Y-88338294D01*
X133325500Y-88349500D01*
X76374500Y-88349500D01*
X76307461Y-88329815D01*
X76261706Y-88277011D01*
X76250500Y-88225500D01*
X76250500Y-87950000D01*
X102900000Y-87950000D01*
X130900000Y-87950000D01*
X130900000Y-76950000D01*
X102900000Y-76950000D01*
X102900000Y-87950000D01*
X76250500Y-87950000D01*
X76250500Y-85997648D01*
X77199500Y-85997648D01*
X77199500Y-86202351D01*
X77231522Y-86404534D01*
X77294781Y-86599223D01*
X77387715Y-86781613D01*
X77508028Y-86947213D01*
X77652786Y-87091971D01*
X77807749Y-87204556D01*
X77818390Y-87212287D01*
X77912597Y-87260288D01*
X78000776Y-87305218D01*
X78000778Y-87305218D01*
X78000781Y-87305220D01*
X78105137Y-87339127D01*
X78195465Y-87368477D01*
X78296557Y-87384488D01*
X78397648Y-87400500D01*
X78397649Y-87400500D01*
X78602351Y-87400500D01*
X78602352Y-87400500D01*
X78804534Y-87368477D01*
X78999219Y-87305220D01*
X79181610Y-87212287D01*
X79295991Y-87129185D01*
X79347213Y-87091971D01*
X79347215Y-87091968D01*
X79347219Y-87091966D01*
X79491966Y-86947219D01*
X79491968Y-86947215D01*
X79491971Y-86947213D01*
X79612284Y-86781614D01*
X79612285Y-86781613D01*
X79612287Y-86781610D01*
X79668568Y-86671153D01*
X96149500Y-86671153D01*
X96149500Y-86828846D01*
X96180261Y-86983489D01*
X96180264Y-86983501D01*
X96240602Y-87129172D01*
X96240609Y-87129185D01*
X96328210Y-87260288D01*
X96328213Y-87260292D01*
X96439707Y-87371786D01*
X96439711Y-87371789D01*
X96570814Y-87459390D01*
X96570827Y-87459397D01*
X96716498Y-87519735D01*
X96716503Y-87519737D01*
X96871153Y-87550499D01*
X96871156Y-87550500D01*
X96871158Y-87550500D01*
X97028844Y-87550500D01*
X97028845Y-87550499D01*
X97183497Y-87519737D01*
X97329179Y-87459394D01*
X97460289Y-87371789D01*
X97571789Y-87260289D01*
X97659394Y-87129179D01*
X97719737Y-86983497D01*
X97750500Y-86828842D01*
X97750500Y-86671158D01*
X97750500Y-86671155D01*
X97750499Y-86671153D01*
X97738090Y-86608769D01*
X97719737Y-86516503D01*
X97719735Y-86516498D01*
X97659397Y-86370827D01*
X97659390Y-86370814D01*
X97571789Y-86239711D01*
X97571786Y-86239707D01*
X97460292Y-86128213D01*
X97460288Y-86128210D01*
X97329185Y-86040609D01*
X97329172Y-86040602D01*
X97183501Y-85980264D01*
X97183489Y-85980261D01*
X97028845Y-85949500D01*
X97028842Y-85949500D01*
X96871158Y-85949500D01*
X96871155Y-85949500D01*
X96716510Y-85980261D01*
X96716498Y-85980264D01*
X96570827Y-86040602D01*
X96570814Y-86040609D01*
X96439711Y-86128210D01*
X96439707Y-86128213D01*
X96328213Y-86239707D01*
X96328210Y-86239711D01*
X96240609Y-86370814D01*
X96240602Y-86370827D01*
X96180264Y-86516498D01*
X96180261Y-86516510D01*
X96149500Y-86671153D01*
X79668568Y-86671153D01*
X79705220Y-86599219D01*
X79768477Y-86404534D01*
X79800500Y-86202352D01*
X79800500Y-85997648D01*
X79768477Y-85795466D01*
X79705220Y-85600781D01*
X79705218Y-85600778D01*
X79705218Y-85600776D01*
X79671503Y-85534607D01*
X79612287Y-85418390D01*
X79604556Y-85407749D01*
X79491971Y-85252786D01*
X79347213Y-85108028D01*
X79181613Y-84987715D01*
X79181612Y-84987714D01*
X79181610Y-84987713D01*
X79124653Y-84958691D01*
X78999223Y-84894781D01*
X78804534Y-84831522D01*
X78629995Y-84803878D01*
X78602352Y-84799500D01*
X78397648Y-84799500D01*
X78373329Y-84803351D01*
X78195465Y-84831522D01*
X78000776Y-84894781D01*
X77818386Y-84987715D01*
X77652786Y-85108028D01*
X77508028Y-85252786D01*
X77387715Y-85418386D01*
X77294781Y-85600776D01*
X77231522Y-85795465D01*
X77199500Y-85997648D01*
X76250500Y-85997648D01*
X76250500Y-82591428D01*
X87875000Y-82591428D01*
X87875000Y-82835000D01*
X88525000Y-82835000D01*
X88525000Y-83335000D01*
X87875000Y-83335000D01*
X87875000Y-83578571D01*
X87911506Y-83762097D01*
X87911508Y-83762105D01*
X87983119Y-83934991D01*
X87983124Y-83935000D01*
X88087086Y-84090589D01*
X88087089Y-84090593D01*
X88219406Y-84222910D01*
X88219410Y-84222913D01*
X88374999Y-84326875D01*
X88375012Y-84326882D01*
X88547889Y-84398489D01*
X88547896Y-84398491D01*
X88575000Y-84403882D01*
X88575000Y-83651988D01*
X88584940Y-83669205D01*
X88640795Y-83725060D01*
X88709204Y-83764556D01*
X88785504Y-83785000D01*
X88864496Y-83785000D01*
X88940796Y-83764556D01*
X89009205Y-83725060D01*
X89065060Y-83669205D01*
X89075000Y-83651988D01*
X89075000Y-84403881D01*
X89102103Y-84398491D01*
X89102110Y-84398489D01*
X89274987Y-84326882D01*
X89275000Y-84326875D01*
X89430589Y-84222913D01*
X89430593Y-84222910D01*
X89562910Y-84090593D01*
X89562913Y-84090589D01*
X89666875Y-83935000D01*
X89666880Y-83934991D01*
X89738491Y-83762105D01*
X89738493Y-83762097D01*
X89774999Y-83578571D01*
X89775000Y-83578569D01*
X89775000Y-83371153D01*
X94224500Y-83371153D01*
X94224500Y-83528846D01*
X94255261Y-83683489D01*
X94255264Y-83683501D01*
X94315602Y-83829172D01*
X94315609Y-83829185D01*
X94403210Y-83960288D01*
X94403213Y-83960292D01*
X94514707Y-84071786D01*
X94514711Y-84071789D01*
X94645814Y-84159390D01*
X94645827Y-84159397D01*
X94791498Y-84219735D01*
X94791503Y-84219737D01*
X94946153Y-84250499D01*
X94946156Y-84250500D01*
X94946158Y-84250500D01*
X95103844Y-84250500D01*
X95103845Y-84250499D01*
X95258497Y-84219737D01*
X95404179Y-84159394D01*
X95535289Y-84071789D01*
X95646789Y-83960289D01*
X95734394Y-83829179D01*
X95794737Y-83683497D01*
X95825500Y-83528842D01*
X95825500Y-83371158D01*
X95825500Y-83371155D01*
X95825499Y-83371153D01*
X95812904Y-83307829D01*
X95794738Y-83216508D01*
X95794737Y-83216507D01*
X95794737Y-83216503D01*
X95794735Y-83216498D01*
X95734397Y-83070827D01*
X95734390Y-83070814D01*
X95646789Y-82939711D01*
X95646786Y-82939707D01*
X95535292Y-82828213D01*
X95535288Y-82828210D01*
X95404185Y-82740609D01*
X95404172Y-82740602D01*
X95305911Y-82699902D01*
X95258501Y-82680264D01*
X95258489Y-82680261D01*
X95103845Y-82649500D01*
X95103842Y-82649500D01*
X94946158Y-82649500D01*
X94946155Y-82649500D01*
X94791510Y-82680261D01*
X94791498Y-82680264D01*
X94645827Y-82740602D01*
X94645814Y-82740609D01*
X94514711Y-82828210D01*
X94514707Y-82828213D01*
X94403213Y-82939707D01*
X94403210Y-82939711D01*
X94315609Y-83070814D01*
X94315602Y-83070827D01*
X94255264Y-83216498D01*
X94255261Y-83216510D01*
X94224500Y-83371153D01*
X89775000Y-83371153D01*
X89775000Y-83335000D01*
X89125000Y-83335000D01*
X89125000Y-82835000D01*
X89775000Y-82835000D01*
X89775000Y-82591430D01*
X89774999Y-82591428D01*
X96525000Y-82591428D01*
X96525000Y-82835000D01*
X97175000Y-82835000D01*
X97175000Y-83335000D01*
X96525000Y-83335000D01*
X96525000Y-83578571D01*
X96561506Y-83762097D01*
X96561508Y-83762105D01*
X96633119Y-83934991D01*
X96633124Y-83935000D01*
X96737086Y-84090589D01*
X96737089Y-84090593D01*
X96869406Y-84222910D01*
X96869410Y-84222913D01*
X97024999Y-84326875D01*
X97025012Y-84326882D01*
X97197889Y-84398489D01*
X97197896Y-84398491D01*
X97225000Y-84403882D01*
X97225000Y-83651988D01*
X97234940Y-83669205D01*
X97290795Y-83725060D01*
X97359204Y-83764556D01*
X97435504Y-83785000D01*
X97514496Y-83785000D01*
X97590796Y-83764556D01*
X97659205Y-83725060D01*
X97715060Y-83669205D01*
X97725000Y-83651988D01*
X97725000Y-84403881D01*
X97752103Y-84398491D01*
X97752110Y-84398489D01*
X97924987Y-84326882D01*
X97925000Y-84326875D01*
X98080589Y-84222913D01*
X98080593Y-84222910D01*
X98212910Y-84090593D01*
X98212913Y-84090589D01*
X98316875Y-83935000D01*
X98316880Y-83934991D01*
X98388491Y-83762105D01*
X98388493Y-83762097D01*
X98424999Y-83578571D01*
X98425000Y-83578569D01*
X98425000Y-83335000D01*
X97775000Y-83335000D01*
X97775000Y-82835000D01*
X98425000Y-82835000D01*
X98425000Y-82591430D01*
X98424999Y-82591428D01*
X98388493Y-82407902D01*
X98388491Y-82407894D01*
X98316880Y-82235008D01*
X98316875Y-82234999D01*
X98212913Y-82079410D01*
X98212910Y-82079406D01*
X98080593Y-81947089D01*
X98080589Y-81947086D01*
X97925000Y-81843124D01*
X97924991Y-81843119D01*
X97752103Y-81771507D01*
X97752100Y-81771506D01*
X97725000Y-81766115D01*
X97725000Y-82518011D01*
X97715060Y-82500795D01*
X97659205Y-82444940D01*
X97590796Y-82405444D01*
X97514496Y-82385000D01*
X97435504Y-82385000D01*
X97359204Y-82405444D01*
X97290795Y-82444940D01*
X97234940Y-82500795D01*
X97225000Y-82518011D01*
X97225000Y-81766116D01*
X97224999Y-81766115D01*
X97197899Y-81771506D01*
X97197896Y-81771507D01*
X97025008Y-81843119D01*
X97024999Y-81843124D01*
X96869410Y-81947086D01*
X96869406Y-81947089D01*
X96737089Y-82079406D01*
X96737086Y-82079410D01*
X96633124Y-82234999D01*
X96633119Y-82235008D01*
X96561508Y-82407894D01*
X96561506Y-82407902D01*
X96525000Y-82591428D01*
X89774999Y-82591428D01*
X89738493Y-82407902D01*
X89738491Y-82407894D01*
X89666880Y-82235008D01*
X89666875Y-82234999D01*
X89562913Y-82079410D01*
X89562910Y-82079406D01*
X89430593Y-81947089D01*
X89430589Y-81947086D01*
X89275000Y-81843124D01*
X89274991Y-81843119D01*
X89102103Y-81771507D01*
X89102100Y-81771506D01*
X89075000Y-81766115D01*
X89075000Y-82518011D01*
X89065060Y-82500795D01*
X89009205Y-82444940D01*
X88940796Y-82405444D01*
X88864496Y-82385000D01*
X88785504Y-82385000D01*
X88709204Y-82405444D01*
X88640795Y-82444940D01*
X88584940Y-82500795D01*
X88575000Y-82518011D01*
X88575000Y-81766116D01*
X88574999Y-81766115D01*
X88547899Y-81771506D01*
X88547896Y-81771507D01*
X88375008Y-81843119D01*
X88374999Y-81843124D01*
X88219410Y-81947086D01*
X88219406Y-81947089D01*
X88087089Y-82079406D01*
X88087086Y-82079410D01*
X87983124Y-82234999D01*
X87983119Y-82235008D01*
X87911508Y-82407894D01*
X87911506Y-82407902D01*
X87875000Y-82591428D01*
X76250500Y-82591428D01*
X76250500Y-78861428D01*
X87875000Y-78861428D01*
X87875000Y-79455000D01*
X88525000Y-79455000D01*
X88525000Y-79955000D01*
X87875000Y-79955000D01*
X87875000Y-80548571D01*
X87911506Y-80732097D01*
X87911508Y-80732105D01*
X87983119Y-80904991D01*
X87983124Y-80905000D01*
X88087086Y-81060589D01*
X88087089Y-81060593D01*
X88219406Y-81192910D01*
X88219410Y-81192913D01*
X88374999Y-81296875D01*
X88375012Y-81296882D01*
X88547889Y-81368489D01*
X88547896Y-81368491D01*
X88575000Y-81373882D01*
X88575000Y-80621988D01*
X88584940Y-80639205D01*
X88640795Y-80695060D01*
X88709204Y-80734556D01*
X88785504Y-80755000D01*
X88864496Y-80755000D01*
X88940796Y-80734556D01*
X89009205Y-80695060D01*
X89065060Y-80639205D01*
X89075000Y-80621988D01*
X89075000Y-81373881D01*
X89102103Y-81368491D01*
X89102110Y-81368489D01*
X89274987Y-81296882D01*
X89275000Y-81296875D01*
X89430589Y-81192913D01*
X89430593Y-81192910D01*
X89562913Y-81060590D01*
X89670264Y-80899928D01*
X89671367Y-80900665D01*
X89715546Y-80855675D01*
X89783681Y-80840203D01*
X89823414Y-80849401D01*
X89927063Y-80892334D01*
X89927071Y-80892336D01*
X90091277Y-80924999D01*
X90091280Y-80925000D01*
X90258720Y-80925000D01*
X90258722Y-80924999D01*
X90422928Y-80892336D01*
X90422932Y-80892335D01*
X90551892Y-80838918D01*
X90621362Y-80831449D01*
X90646795Y-80838916D01*
X90776918Y-80892816D01*
X90938714Y-80924999D01*
X90941228Y-80925499D01*
X90941232Y-80925500D01*
X90941233Y-80925500D01*
X91108768Y-80925500D01*
X91108769Y-80925499D01*
X91273082Y-80892816D01*
X91402548Y-80839188D01*
X91472016Y-80831720D01*
X91497450Y-80839188D01*
X91626918Y-80892816D01*
X91788714Y-80924999D01*
X91791228Y-80925499D01*
X91791232Y-80925500D01*
X91791233Y-80925500D01*
X91958768Y-80925500D01*
X91958769Y-80925499D01*
X92123082Y-80892816D01*
X92252548Y-80839188D01*
X92322016Y-80831720D01*
X92347450Y-80839188D01*
X92476918Y-80892816D01*
X92638714Y-80924999D01*
X92641228Y-80925499D01*
X92641232Y-80925500D01*
X92641233Y-80925500D01*
X92808768Y-80925500D01*
X92808769Y-80925499D01*
X92973082Y-80892816D01*
X93102548Y-80839188D01*
X93172016Y-80831720D01*
X93197450Y-80839188D01*
X93326918Y-80892816D01*
X93488714Y-80924999D01*
X93491228Y-80925499D01*
X93491232Y-80925500D01*
X93491233Y-80925500D01*
X93658768Y-80925500D01*
X93658769Y-80925499D01*
X93823082Y-80892816D01*
X93952548Y-80839188D01*
X94022016Y-80831720D01*
X94047450Y-80839188D01*
X94176918Y-80892816D01*
X94338714Y-80924999D01*
X94341228Y-80925499D01*
X94341232Y-80925500D01*
X94341233Y-80925500D01*
X94508768Y-80925500D01*
X94508769Y-80925499D01*
X94673082Y-80892816D01*
X94802548Y-80839188D01*
X94872016Y-80831720D01*
X94897450Y-80839188D01*
X95026918Y-80892816D01*
X95188714Y-80924999D01*
X95191228Y-80925499D01*
X95191232Y-80925500D01*
X95191233Y-80925500D01*
X95358768Y-80925500D01*
X95358769Y-80925499D01*
X95523082Y-80892816D01*
X95653203Y-80838917D01*
X95722667Y-80831449D01*
X95748105Y-80838918D01*
X95877063Y-80892334D01*
X95877071Y-80892336D01*
X96041277Y-80924999D01*
X96041280Y-80925000D01*
X96208720Y-80925000D01*
X96208722Y-80924999D01*
X96372928Y-80892336D01*
X96372936Y-80892334D01*
X96476585Y-80849402D01*
X96546055Y-80841933D01*
X96608534Y-80873208D01*
X96629315Y-80900209D01*
X96629736Y-80899929D01*
X96737086Y-81060589D01*
X96737089Y-81060593D01*
X96869406Y-81192910D01*
X96869410Y-81192913D01*
X97024999Y-81296875D01*
X97025012Y-81296882D01*
X97197889Y-81368489D01*
X97197896Y-81368491D01*
X97225000Y-81373882D01*
X97225000Y-80621988D01*
X97234940Y-80639205D01*
X97290795Y-80695060D01*
X97359204Y-80734556D01*
X97435504Y-80755000D01*
X97514496Y-80755000D01*
X97590796Y-80734556D01*
X97659205Y-80695060D01*
X97715060Y-80639205D01*
X97725000Y-80621988D01*
X97725000Y-81373881D01*
X97752103Y-81368491D01*
X97752110Y-81368489D01*
X97924987Y-81296882D01*
X97925000Y-81296875D01*
X98080589Y-81192913D01*
X98080593Y-81192910D01*
X98212910Y-81060593D01*
X98212913Y-81060589D01*
X98316875Y-80905000D01*
X98316880Y-80904991D01*
X98388491Y-80732105D01*
X98388493Y-80732097D01*
X98424999Y-80548571D01*
X98425000Y-80548569D01*
X98425000Y-79955000D01*
X97775000Y-79955000D01*
X97775000Y-79455000D01*
X98425000Y-79455000D01*
X98425000Y-78861430D01*
X98424999Y-78861428D01*
X98388493Y-78677902D01*
X98388491Y-78677894D01*
X98316880Y-78505008D01*
X98316875Y-78504999D01*
X98212913Y-78349410D01*
X98212910Y-78349406D01*
X98080593Y-78217089D01*
X98080589Y-78217086D01*
X97925000Y-78113124D01*
X97924991Y-78113119D01*
X97752103Y-78041507D01*
X97752100Y-78041506D01*
X97725000Y-78036115D01*
X97725000Y-78788011D01*
X97715060Y-78770795D01*
X97659205Y-78714940D01*
X97590796Y-78675444D01*
X97514496Y-78655000D01*
X97435504Y-78655000D01*
X97359204Y-78675444D01*
X97290795Y-78714940D01*
X97234940Y-78770795D01*
X97225000Y-78788011D01*
X97225000Y-78036116D01*
X97224999Y-78036115D01*
X97197899Y-78041506D01*
X97197896Y-78041507D01*
X97025007Y-78113120D01*
X96949500Y-78163571D01*
X96943963Y-78219786D01*
X96917801Y-78284573D01*
X96908241Y-78295311D01*
X96478553Y-78724999D01*
X96478553Y-78725000D01*
X96907060Y-79153507D01*
X96940545Y-79214830D01*
X96935561Y-79284522D01*
X96907060Y-79328869D01*
X96835929Y-79400000D01*
X96907060Y-79471131D01*
X96940545Y-79532454D01*
X96935561Y-79602146D01*
X96907060Y-79646493D01*
X96389457Y-80164095D01*
X96381511Y-80168433D01*
X96376086Y-80175681D01*
X96351326Y-80184915D01*
X96328134Y-80197580D01*
X96319104Y-80196934D01*
X96310622Y-80200098D01*
X96287725Y-80195117D01*
X96294552Y-80188291D01*
X96325000Y-80114782D01*
X96325000Y-80035218D01*
X96294552Y-79961709D01*
X96238291Y-79905448D01*
X96164782Y-79875000D01*
X96102380Y-79875000D01*
X96093587Y-79830795D01*
X96099814Y-79761204D01*
X96127523Y-79718923D01*
X96446446Y-79400000D01*
X96446446Y-79399999D01*
X96127523Y-79081076D01*
X96094038Y-79019753D01*
X96093587Y-78969204D01*
X96102380Y-78925000D01*
X96164782Y-78925000D01*
X96238291Y-78894552D01*
X96294552Y-78838291D01*
X96325000Y-78764782D01*
X96325000Y-78685218D01*
X96294552Y-78611709D01*
X96238291Y-78555448D01*
X96164782Y-78525000D01*
X96102380Y-78525000D01*
X96093587Y-78480793D01*
X96099814Y-78411202D01*
X96127523Y-78368921D01*
X96525561Y-77970884D01*
X96372936Y-77907665D01*
X96372928Y-77907663D01*
X96208721Y-77875000D01*
X96041279Y-77875000D01*
X95877071Y-77907663D01*
X95877063Y-77907665D01*
X95748107Y-77961081D01*
X95678637Y-77968550D01*
X95653201Y-77961081D01*
X95523082Y-77907184D01*
X95523074Y-77907182D01*
X95358771Y-77874500D01*
X95358767Y-77874500D01*
X95191233Y-77874500D01*
X95191228Y-77874500D01*
X95026925Y-77907182D01*
X95026913Y-77907185D01*
X94897452Y-77960810D01*
X94827983Y-77968279D01*
X94802548Y-77960810D01*
X94673086Y-77907185D01*
X94673074Y-77907182D01*
X94508771Y-77874500D01*
X94508767Y-77874500D01*
X94341233Y-77874500D01*
X94341228Y-77874500D01*
X94176925Y-77907182D01*
X94176913Y-77907185D01*
X94047452Y-77960810D01*
X93977983Y-77968279D01*
X93952548Y-77960810D01*
X93823086Y-77907185D01*
X93823074Y-77907182D01*
X93658771Y-77874500D01*
X93658767Y-77874500D01*
X93491233Y-77874500D01*
X93491228Y-77874500D01*
X93326925Y-77907182D01*
X93326913Y-77907185D01*
X93197452Y-77960810D01*
X93127983Y-77968279D01*
X93102548Y-77960810D01*
X92973086Y-77907185D01*
X92973074Y-77907182D01*
X92808771Y-77874500D01*
X92808767Y-77874500D01*
X92641233Y-77874500D01*
X92641228Y-77874500D01*
X92476925Y-77907182D01*
X92476913Y-77907185D01*
X92347452Y-77960810D01*
X92277983Y-77968279D01*
X92252548Y-77960810D01*
X92123086Y-77907185D01*
X92123074Y-77907182D01*
X91958771Y-77874500D01*
X91958767Y-77874500D01*
X91791233Y-77874500D01*
X91791228Y-77874500D01*
X91626925Y-77907182D01*
X91626913Y-77907185D01*
X91497452Y-77960810D01*
X91427983Y-77968279D01*
X91402548Y-77960810D01*
X91273086Y-77907185D01*
X91273074Y-77907182D01*
X91108771Y-77874500D01*
X91108767Y-77874500D01*
X90941233Y-77874500D01*
X90941228Y-77874500D01*
X90776925Y-77907182D01*
X90776917Y-77907184D01*
X90646799Y-77961081D01*
X90577329Y-77968550D01*
X90551893Y-77961081D01*
X90422936Y-77907665D01*
X90422928Y-77907663D01*
X90258721Y-77875000D01*
X90091279Y-77875000D01*
X89927071Y-77907662D01*
X89927062Y-77907665D01*
X89774437Y-77970884D01*
X90172476Y-78368922D01*
X90205961Y-78430245D01*
X90206412Y-78480794D01*
X90197619Y-78525000D01*
X90135218Y-78525000D01*
X90061709Y-78555448D01*
X90005448Y-78611709D01*
X89975000Y-78685218D01*
X89975000Y-78764782D01*
X90005448Y-78838291D01*
X90061709Y-78894552D01*
X90135218Y-78925000D01*
X90197619Y-78925000D01*
X90206412Y-78969204D01*
X90200185Y-79038796D01*
X90172476Y-79081076D01*
X89853553Y-79399999D01*
X89853553Y-79400000D01*
X90172476Y-79718922D01*
X90175075Y-79723683D01*
X90179601Y-79726679D01*
X90191643Y-79754025D01*
X90205961Y-79780245D01*
X90206155Y-79786977D01*
X90207761Y-79790623D01*
X90206955Y-79814616D01*
X90207282Y-79825913D01*
X90206892Y-79828382D01*
X90197620Y-79875000D01*
X90135218Y-79875000D01*
X90061709Y-79905448D01*
X90005448Y-79961709D01*
X89975000Y-80035218D01*
X89975000Y-80114782D01*
X90005448Y-80188291D01*
X90013978Y-80196821D01*
X89954888Y-80192595D01*
X89910542Y-80164095D01*
X89392939Y-79646493D01*
X89359454Y-79585170D01*
X89364438Y-79515479D01*
X89392939Y-79471131D01*
X89464070Y-79400000D01*
X89392938Y-79328868D01*
X89359454Y-79267545D01*
X89364438Y-79197853D01*
X89392939Y-79153506D01*
X89821446Y-78724999D01*
X89391757Y-78295310D01*
X89358272Y-78233987D01*
X89356035Y-78219784D01*
X89350497Y-78163570D01*
X89275000Y-78113124D01*
X89274991Y-78113119D01*
X89102103Y-78041507D01*
X89102100Y-78041506D01*
X89075000Y-78036115D01*
X89075000Y-78788011D01*
X89065060Y-78770795D01*
X89009205Y-78714940D01*
X88940796Y-78675444D01*
X88864496Y-78655000D01*
X88785504Y-78655000D01*
X88709204Y-78675444D01*
X88640795Y-78714940D01*
X88584940Y-78770795D01*
X88575000Y-78788011D01*
X88575000Y-78036116D01*
X88574999Y-78036115D01*
X88547899Y-78041506D01*
X88547896Y-78041507D01*
X88375008Y-78113119D01*
X88374999Y-78113124D01*
X88219410Y-78217086D01*
X88219406Y-78217089D01*
X88087089Y-78349406D01*
X88087086Y-78349410D01*
X87983124Y-78504999D01*
X87983119Y-78505008D01*
X87911508Y-78677894D01*
X87911506Y-78677902D01*
X87875000Y-78861428D01*
X76250500Y-78861428D01*
X76250500Y-77021153D01*
X97999500Y-77021153D01*
X97999500Y-77178846D01*
X98030261Y-77333489D01*
X98030264Y-77333501D01*
X98090602Y-77479172D01*
X98090609Y-77479185D01*
X98178210Y-77610288D01*
X98178213Y-77610292D01*
X98289707Y-77721786D01*
X98289711Y-77721789D01*
X98420814Y-77809390D01*
X98420827Y-77809397D01*
X98566498Y-77869735D01*
X98566503Y-77869737D01*
X98721153Y-77900499D01*
X98721156Y-77900500D01*
X98721158Y-77900500D01*
X98878844Y-77900500D01*
X98878845Y-77900499D01*
X99033497Y-77869737D01*
X99179179Y-77809394D01*
X99310289Y-77721789D01*
X99421789Y-77610289D01*
X99509394Y-77479179D01*
X99569737Y-77333497D01*
X99600500Y-77178842D01*
X99600500Y-77021158D01*
X99600500Y-77021155D01*
X99600499Y-77021153D01*
X99580942Y-76922829D01*
X99569738Y-76866508D01*
X99569737Y-76866507D01*
X99569737Y-76866503D01*
X99569735Y-76866498D01*
X99509397Y-76720827D01*
X99509390Y-76720814D01*
X99421789Y-76589711D01*
X99421786Y-76589707D01*
X99310292Y-76478213D01*
X99310288Y-76478210D01*
X99179185Y-76390609D01*
X99179172Y-76390602D01*
X99033501Y-76330264D01*
X99033489Y-76330261D01*
X98878845Y-76299500D01*
X98878842Y-76299500D01*
X98721158Y-76299500D01*
X98721155Y-76299500D01*
X98566510Y-76330261D01*
X98566498Y-76330264D01*
X98420827Y-76390602D01*
X98420814Y-76390609D01*
X98289711Y-76478210D01*
X98289707Y-76478213D01*
X98178213Y-76589707D01*
X98178210Y-76589711D01*
X98090609Y-76720814D01*
X98090602Y-76720827D01*
X98030264Y-76866498D01*
X98030261Y-76866510D01*
X97999500Y-77021153D01*
X76250500Y-77021153D01*
X76250500Y-75771153D01*
X122949500Y-75771153D01*
X122949500Y-75928846D01*
X122980261Y-76083489D01*
X122980264Y-76083501D01*
X123040602Y-76229172D01*
X123040609Y-76229185D01*
X123128210Y-76360288D01*
X123128213Y-76360292D01*
X123239707Y-76471786D01*
X123239711Y-76471789D01*
X123370814Y-76559390D01*
X123370827Y-76559397D01*
X123444013Y-76589711D01*
X123516503Y-76619737D01*
X123671153Y-76650499D01*
X123671156Y-76650500D01*
X123671158Y-76650500D01*
X123828844Y-76650500D01*
X123828845Y-76650499D01*
X123983497Y-76619737D01*
X124129179Y-76559394D01*
X124260289Y-76471789D01*
X124371789Y-76360289D01*
X124459394Y-76229179D01*
X124519737Y-76083497D01*
X124550500Y-75928842D01*
X124550500Y-75771158D01*
X124550500Y-75771155D01*
X124550499Y-75771153D01*
X130349500Y-75771153D01*
X130349500Y-75928846D01*
X130380261Y-76083489D01*
X130380264Y-76083501D01*
X130440602Y-76229172D01*
X130440609Y-76229185D01*
X130528210Y-76360288D01*
X130528213Y-76360292D01*
X130639707Y-76471786D01*
X130639711Y-76471789D01*
X130770814Y-76559390D01*
X130770827Y-76559397D01*
X130844013Y-76589711D01*
X130916503Y-76619737D01*
X131071153Y-76650499D01*
X131071156Y-76650500D01*
X131071158Y-76650500D01*
X131228844Y-76650500D01*
X131228845Y-76650499D01*
X131383497Y-76619737D01*
X131529179Y-76559394D01*
X131660289Y-76471789D01*
X131771789Y-76360289D01*
X131859394Y-76229179D01*
X131919737Y-76083497D01*
X131950500Y-75928842D01*
X131950500Y-75771158D01*
X131950500Y-75771155D01*
X131950499Y-75771153D01*
X131919738Y-75616510D01*
X131919737Y-75616503D01*
X131919735Y-75616498D01*
X131859397Y-75470827D01*
X131859390Y-75470814D01*
X131771789Y-75339711D01*
X131771786Y-75339707D01*
X131660292Y-75228213D01*
X131660288Y-75228210D01*
X131529185Y-75140609D01*
X131529172Y-75140602D01*
X131383501Y-75080264D01*
X131383489Y-75080261D01*
X131228845Y-75049500D01*
X131228842Y-75049500D01*
X131071158Y-75049500D01*
X131071155Y-75049500D01*
X130916510Y-75080261D01*
X130916498Y-75080264D01*
X130770827Y-75140602D01*
X130770814Y-75140609D01*
X130639711Y-75228210D01*
X130639707Y-75228213D01*
X130528213Y-75339707D01*
X130528210Y-75339711D01*
X130440609Y-75470814D01*
X130440602Y-75470827D01*
X130380264Y-75616498D01*
X130380261Y-75616510D01*
X130349500Y-75771153D01*
X124550499Y-75771153D01*
X124519738Y-75616510D01*
X124519737Y-75616503D01*
X124519735Y-75616498D01*
X124459397Y-75470827D01*
X124459390Y-75470814D01*
X124371789Y-75339711D01*
X124371786Y-75339707D01*
X124260292Y-75228213D01*
X124260288Y-75228210D01*
X124129185Y-75140609D01*
X124129172Y-75140602D01*
X123983501Y-75080264D01*
X123983489Y-75080261D01*
X123828845Y-75049500D01*
X123828842Y-75049500D01*
X123671158Y-75049500D01*
X123671155Y-75049500D01*
X123516510Y-75080261D01*
X123516498Y-75080264D01*
X123370827Y-75140602D01*
X123370814Y-75140609D01*
X123239711Y-75228210D01*
X123239707Y-75228213D01*
X123128213Y-75339707D01*
X123128210Y-75339711D01*
X123040609Y-75470814D01*
X123040602Y-75470827D01*
X122980264Y-75616498D01*
X122980261Y-75616510D01*
X122949500Y-75771153D01*
X76250500Y-75771153D01*
X76250500Y-74071153D01*
X86449500Y-74071153D01*
X86449500Y-74228846D01*
X86480261Y-74383489D01*
X86480264Y-74383501D01*
X86540602Y-74529172D01*
X86540609Y-74529185D01*
X86628210Y-74660288D01*
X86628213Y-74660292D01*
X86739707Y-74771786D01*
X86739711Y-74771789D01*
X86870814Y-74859390D01*
X86870827Y-74859397D01*
X87016498Y-74919735D01*
X87016503Y-74919737D01*
X87171153Y-74950499D01*
X87171156Y-74950500D01*
X87171158Y-74950500D01*
X87328844Y-74950500D01*
X87328845Y-74950499D01*
X87483497Y-74919737D01*
X87629179Y-74859394D01*
X87760289Y-74771789D01*
X87871789Y-74660289D01*
X87959394Y-74529179D01*
X88019737Y-74383497D01*
X88050500Y-74228842D01*
X88050500Y-74171153D01*
X103449500Y-74171153D01*
X103449500Y-74328846D01*
X103480261Y-74483489D01*
X103480264Y-74483501D01*
X103540602Y-74629172D01*
X103540609Y-74629185D01*
X103628210Y-74760288D01*
X103628213Y-74760292D01*
X103739707Y-74871786D01*
X103739711Y-74871789D01*
X103870814Y-74959390D01*
X103870827Y-74959397D01*
X104016498Y-75019735D01*
X104016503Y-75019737D01*
X104166131Y-75049500D01*
X104171153Y-75050499D01*
X104171156Y-75050500D01*
X104171158Y-75050500D01*
X104328844Y-75050500D01*
X104328845Y-75050499D01*
X104483497Y-75019737D01*
X104629179Y-74959394D01*
X104760289Y-74871789D01*
X104871789Y-74760289D01*
X104959394Y-74629179D01*
X105019737Y-74483497D01*
X105050500Y-74328842D01*
X105050500Y-74236555D01*
X105070185Y-74169516D01*
X105122989Y-74123761D01*
X105192147Y-74113817D01*
X105210411Y-74118840D01*
X105210676Y-74117969D01*
X105216492Y-74119732D01*
X105216503Y-74119737D01*
X105371153Y-74150499D01*
X105371156Y-74150500D01*
X105371158Y-74150500D01*
X105528844Y-74150500D01*
X105528845Y-74150499D01*
X105683497Y-74119737D01*
X105829179Y-74059394D01*
X105960289Y-73971789D01*
X106071789Y-73860289D01*
X106159394Y-73729179D01*
X106219737Y-73583497D01*
X106250500Y-73428842D01*
X106250500Y-73271158D01*
X106250500Y-73271155D01*
X106250499Y-73271153D01*
X106219738Y-73116510D01*
X106219737Y-73116503D01*
X106219735Y-73116498D01*
X106159397Y-72970827D01*
X106159390Y-72970814D01*
X106071789Y-72839711D01*
X106071786Y-72839707D01*
X105960292Y-72728213D01*
X105960288Y-72728210D01*
X105829185Y-72640609D01*
X105829172Y-72640602D01*
X105683501Y-72580264D01*
X105683489Y-72580261D01*
X105528845Y-72549500D01*
X105528842Y-72549500D01*
X105371158Y-72549500D01*
X105371155Y-72549500D01*
X105216510Y-72580261D01*
X105216498Y-72580264D01*
X105070827Y-72640602D01*
X105070814Y-72640609D01*
X104939711Y-72728210D01*
X104939707Y-72728213D01*
X104828213Y-72839707D01*
X104828210Y-72839711D01*
X104740609Y-72970814D01*
X104740602Y-72970827D01*
X104680264Y-73116498D01*
X104680261Y-73116510D01*
X104649500Y-73271153D01*
X104649500Y-73363444D01*
X104629815Y-73430483D01*
X104577011Y-73476238D01*
X104507853Y-73486182D01*
X104489575Y-73481202D01*
X104489324Y-73482031D01*
X104483500Y-73480264D01*
X104483497Y-73480263D01*
X104483492Y-73480262D01*
X104483489Y-73480261D01*
X104328845Y-73449500D01*
X104328842Y-73449500D01*
X104171158Y-73449500D01*
X104171155Y-73449500D01*
X104016510Y-73480261D01*
X104016498Y-73480264D01*
X103870827Y-73540602D01*
X103870814Y-73540609D01*
X103739711Y-73628210D01*
X103739707Y-73628213D01*
X103628213Y-73739707D01*
X103628210Y-73739711D01*
X103540609Y-73870814D01*
X103540602Y-73870827D01*
X103480264Y-74016498D01*
X103480261Y-74016510D01*
X103449500Y-74171153D01*
X88050500Y-74171153D01*
X88050500Y-74071158D01*
X88050500Y-74071155D01*
X88050499Y-74071153D01*
X88030734Y-73971789D01*
X88019737Y-73916503D01*
X87996452Y-73860288D01*
X87959397Y-73770827D01*
X87959390Y-73770814D01*
X87871789Y-73639711D01*
X87871786Y-73639707D01*
X87760292Y-73528213D01*
X87760288Y-73528210D01*
X87629185Y-73440609D01*
X87629172Y-73440602D01*
X87483501Y-73380264D01*
X87483489Y-73380261D01*
X87328845Y-73349500D01*
X87328842Y-73349500D01*
X87171158Y-73349500D01*
X87171155Y-73349500D01*
X87016510Y-73380261D01*
X87016498Y-73380264D01*
X86870827Y-73440602D01*
X86870814Y-73440609D01*
X86739711Y-73528210D01*
X86739707Y-73528213D01*
X86628213Y-73639707D01*
X86628210Y-73639711D01*
X86540609Y-73770814D01*
X86540602Y-73770827D01*
X86480264Y-73916498D01*
X86480261Y-73916510D01*
X86449500Y-74071153D01*
X76250500Y-74071153D01*
X76250500Y-72071153D01*
X82149500Y-72071153D01*
X82149500Y-72228846D01*
X82180261Y-72383489D01*
X82180264Y-72383501D01*
X82240602Y-72529172D01*
X82240609Y-72529185D01*
X82328210Y-72660288D01*
X82328213Y-72660292D01*
X82439707Y-72771786D01*
X82439711Y-72771789D01*
X82570814Y-72859390D01*
X82570827Y-72859397D01*
X82716498Y-72919735D01*
X82716503Y-72919737D01*
X82871153Y-72950499D01*
X82871156Y-72950500D01*
X82871158Y-72950500D01*
X83028844Y-72950500D01*
X83028845Y-72950499D01*
X83183497Y-72919737D01*
X83329179Y-72859394D01*
X83460289Y-72771789D01*
X83571789Y-72660289D01*
X83659394Y-72529179D01*
X83719737Y-72383497D01*
X83750500Y-72228842D01*
X83750500Y-72071158D01*
X83750500Y-72071155D01*
X83750499Y-72071153D01*
X83730734Y-71971789D01*
X83719737Y-71916503D01*
X83659534Y-71771158D01*
X83659397Y-71770827D01*
X83659390Y-71770814D01*
X83571789Y-71639711D01*
X83571786Y-71639707D01*
X83460292Y-71528213D01*
X83460288Y-71528210D01*
X83329185Y-71440609D01*
X83329172Y-71440602D01*
X83183501Y-71380264D01*
X83183489Y-71380261D01*
X83028845Y-71349500D01*
X83028842Y-71349500D01*
X82871158Y-71349500D01*
X82871155Y-71349500D01*
X82716510Y-71380261D01*
X82716498Y-71380264D01*
X82570827Y-71440602D01*
X82570814Y-71440609D01*
X82439711Y-71528210D01*
X82439707Y-71528213D01*
X82328213Y-71639707D01*
X82328210Y-71639711D01*
X82240609Y-71770814D01*
X82240602Y-71770827D01*
X82180264Y-71916498D01*
X82180261Y-71916510D01*
X82149500Y-72071153D01*
X76250500Y-72071153D01*
X76250500Y-71271153D01*
X87149500Y-71271153D01*
X87149500Y-71428846D01*
X87180261Y-71583489D01*
X87180264Y-71583501D01*
X87240602Y-71729172D01*
X87240609Y-71729185D01*
X87328210Y-71860288D01*
X87328213Y-71860292D01*
X87439707Y-71971786D01*
X87439711Y-71971789D01*
X87570814Y-72059390D01*
X87570827Y-72059397D01*
X87716498Y-72119735D01*
X87716503Y-72119737D01*
X87871153Y-72150499D01*
X87871156Y-72150500D01*
X87871158Y-72150500D01*
X88028844Y-72150500D01*
X88028845Y-72150499D01*
X88183497Y-72119737D01*
X88329179Y-72059394D01*
X88460289Y-71971789D01*
X88571789Y-71860289D01*
X88631348Y-71771153D01*
X100849500Y-71771153D01*
X100849500Y-71928846D01*
X100880261Y-72083489D01*
X100880264Y-72083501D01*
X100940602Y-72229172D01*
X100940609Y-72229185D01*
X101028210Y-72360288D01*
X101028213Y-72360292D01*
X101139707Y-72471786D01*
X101139711Y-72471789D01*
X101270814Y-72559390D01*
X101270827Y-72559397D01*
X101416498Y-72619735D01*
X101416503Y-72619737D01*
X101571153Y-72650499D01*
X101571156Y-72650500D01*
X101571158Y-72650500D01*
X101728844Y-72650500D01*
X101728845Y-72650499D01*
X101883497Y-72619737D01*
X102029179Y-72559394D01*
X102160289Y-72471789D01*
X102271789Y-72360289D01*
X102359394Y-72229179D01*
X102419737Y-72083497D01*
X102450500Y-71928842D01*
X102450500Y-71771158D01*
X102450500Y-71771155D01*
X102450499Y-71771153D01*
X102424353Y-71639711D01*
X102419737Y-71616503D01*
X102406062Y-71583489D01*
X102359397Y-71470827D01*
X102359390Y-71470814D01*
X102271789Y-71339711D01*
X102271786Y-71339707D01*
X102160292Y-71228213D01*
X102160288Y-71228210D01*
X102029185Y-71140609D01*
X102029172Y-71140602D01*
X101883501Y-71080264D01*
X101883489Y-71080261D01*
X101728845Y-71049500D01*
X101728842Y-71049500D01*
X101571158Y-71049500D01*
X101571155Y-71049500D01*
X101416510Y-71080261D01*
X101416498Y-71080264D01*
X101270827Y-71140602D01*
X101270814Y-71140609D01*
X101139711Y-71228210D01*
X101139707Y-71228213D01*
X101028213Y-71339707D01*
X101028210Y-71339711D01*
X100940609Y-71470814D01*
X100940602Y-71470827D01*
X100880264Y-71616498D01*
X100880261Y-71616510D01*
X100849500Y-71771153D01*
X88631348Y-71771153D01*
X88659394Y-71729179D01*
X88719737Y-71583497D01*
X88750500Y-71428842D01*
X88750500Y-71271158D01*
X88750500Y-71271155D01*
X88750499Y-71271153D01*
X88724531Y-71140606D01*
X88719737Y-71116503D01*
X88719735Y-71116498D01*
X88659397Y-70970827D01*
X88659390Y-70970814D01*
X88571789Y-70839711D01*
X88571786Y-70839707D01*
X88460292Y-70728213D01*
X88460288Y-70728210D01*
X88329185Y-70640609D01*
X88329172Y-70640602D01*
X88183501Y-70580264D01*
X88183489Y-70580261D01*
X88028845Y-70549500D01*
X88028842Y-70549500D01*
X87871158Y-70549500D01*
X87871155Y-70549500D01*
X87716510Y-70580261D01*
X87716498Y-70580264D01*
X87570827Y-70640602D01*
X87570814Y-70640609D01*
X87439711Y-70728210D01*
X87439707Y-70728213D01*
X87328213Y-70839707D01*
X87328210Y-70839711D01*
X87240609Y-70970814D01*
X87240602Y-70970827D01*
X87180264Y-71116498D01*
X87180261Y-71116510D01*
X87149500Y-71271153D01*
X76250500Y-71271153D01*
X76250500Y-69771153D01*
X89349500Y-69771153D01*
X89349500Y-69928846D01*
X89380261Y-70083489D01*
X89380264Y-70083501D01*
X89440602Y-70229172D01*
X89440609Y-70229185D01*
X89528210Y-70360288D01*
X89528213Y-70360292D01*
X89639707Y-70471786D01*
X89639711Y-70471789D01*
X89770814Y-70559390D01*
X89770827Y-70559397D01*
X89916498Y-70619735D01*
X89916503Y-70619737D01*
X90071153Y-70650499D01*
X90071156Y-70650500D01*
X90071158Y-70650500D01*
X90228844Y-70650500D01*
X90228845Y-70650499D01*
X90383497Y-70619737D01*
X90529179Y-70559394D01*
X90660289Y-70471789D01*
X90771789Y-70360289D01*
X90859394Y-70229179D01*
X90919737Y-70083497D01*
X90950500Y-69928842D01*
X90950500Y-69771158D01*
X90950500Y-69771155D01*
X90950499Y-69771153D01*
X90919738Y-69616510D01*
X90919737Y-69616503D01*
X90909574Y-69591966D01*
X90859397Y-69470827D01*
X90859390Y-69470814D01*
X90771789Y-69339711D01*
X90771786Y-69339707D01*
X90660292Y-69228213D01*
X90660288Y-69228210D01*
X90529185Y-69140609D01*
X90529172Y-69140602D01*
X90383501Y-69080264D01*
X90383489Y-69080261D01*
X90228845Y-69049500D01*
X90228842Y-69049500D01*
X90071158Y-69049500D01*
X90071155Y-69049500D01*
X89916510Y-69080261D01*
X89916498Y-69080264D01*
X89770827Y-69140602D01*
X89770814Y-69140609D01*
X89639711Y-69228210D01*
X89639707Y-69228213D01*
X89528213Y-69339707D01*
X89528210Y-69339711D01*
X89440609Y-69470814D01*
X89440602Y-69470827D01*
X89380264Y-69616498D01*
X89380261Y-69616510D01*
X89349500Y-69771153D01*
X76250500Y-69771153D01*
X76250500Y-68471153D01*
X92749500Y-68471153D01*
X92749500Y-68628846D01*
X92780261Y-68783489D01*
X92780264Y-68783501D01*
X92840602Y-68929172D01*
X92840609Y-68929185D01*
X92928210Y-69060288D01*
X92928213Y-69060292D01*
X93039707Y-69171786D01*
X93039711Y-69171789D01*
X93170814Y-69259390D01*
X93170827Y-69259397D01*
X93316498Y-69319735D01*
X93316503Y-69319737D01*
X93471153Y-69350499D01*
X93471156Y-69350500D01*
X93471158Y-69350500D01*
X93628844Y-69350500D01*
X93628845Y-69350499D01*
X93783497Y-69319737D01*
X93929179Y-69259394D01*
X94060289Y-69171789D01*
X94171789Y-69060289D01*
X94259394Y-68929179D01*
X94319737Y-68783497D01*
X94350500Y-68628842D01*
X94350500Y-68497648D01*
X130099500Y-68497648D01*
X130099500Y-68702351D01*
X130131522Y-68904534D01*
X130194781Y-69099223D01*
X130231756Y-69171789D01*
X130276393Y-69259394D01*
X130287715Y-69281613D01*
X130408028Y-69447213D01*
X130552786Y-69591971D01*
X130707749Y-69704556D01*
X130718390Y-69712287D01*
X130833921Y-69771153D01*
X130900776Y-69805218D01*
X130900778Y-69805218D01*
X130900781Y-69805220D01*
X131005137Y-69839127D01*
X131095465Y-69868477D01*
X131196557Y-69884488D01*
X131297648Y-69900500D01*
X131297649Y-69900500D01*
X131502351Y-69900500D01*
X131502352Y-69900500D01*
X131704534Y-69868477D01*
X131899219Y-69805220D01*
X132081610Y-69712287D01*
X132213437Y-69616510D01*
X132247213Y-69591971D01*
X132247215Y-69591968D01*
X132247219Y-69591966D01*
X132391966Y-69447219D01*
X132391968Y-69447215D01*
X132391971Y-69447213D01*
X132462236Y-69350500D01*
X132512287Y-69281610D01*
X132605220Y-69099219D01*
X132668477Y-68904534D01*
X132700500Y-68702352D01*
X132700500Y-68497648D01*
X132668477Y-68295466D01*
X132605220Y-68100781D01*
X132605218Y-68100778D01*
X132605218Y-68100776D01*
X132571503Y-68034607D01*
X132512287Y-67918390D01*
X132504556Y-67907749D01*
X132391971Y-67752786D01*
X132247213Y-67608028D01*
X132081613Y-67487715D01*
X132081612Y-67487714D01*
X132081610Y-67487713D01*
X132024653Y-67458691D01*
X131899223Y-67394781D01*
X131704534Y-67331522D01*
X131529995Y-67303878D01*
X131502352Y-67299500D01*
X131297648Y-67299500D01*
X131273329Y-67303351D01*
X131095465Y-67331522D01*
X130900776Y-67394781D01*
X130718386Y-67487715D01*
X130552786Y-67608028D01*
X130408028Y-67752786D01*
X130287715Y-67918386D01*
X130194781Y-68100776D01*
X130131522Y-68295465D01*
X130099500Y-68497648D01*
X94350500Y-68497648D01*
X94350500Y-68471158D01*
X94350500Y-68471155D01*
X94350499Y-68471153D01*
X94319738Y-68316510D01*
X94319737Y-68316503D01*
X94311023Y-68295465D01*
X94259397Y-68170827D01*
X94259390Y-68170814D01*
X94171789Y-68039711D01*
X94171786Y-68039707D01*
X94060292Y-67928213D01*
X94060288Y-67928210D01*
X93929185Y-67840609D01*
X93929172Y-67840602D01*
X93783501Y-67780264D01*
X93783489Y-67780261D01*
X93628845Y-67749500D01*
X93628842Y-67749500D01*
X93471158Y-67749500D01*
X93471155Y-67749500D01*
X93316510Y-67780261D01*
X93316498Y-67780264D01*
X93170827Y-67840602D01*
X93170814Y-67840609D01*
X93039711Y-67928210D01*
X93039707Y-67928213D01*
X92928213Y-68039707D01*
X92928210Y-68039711D01*
X92840609Y-68170814D01*
X92840602Y-68170827D01*
X92780264Y-68316498D01*
X92780261Y-68316510D01*
X92749500Y-68471153D01*
X76250500Y-68471153D01*
X76250500Y-65271153D01*
X98249500Y-65271153D01*
X98249500Y-65428846D01*
X98280261Y-65583489D01*
X98280264Y-65583501D01*
X98340602Y-65729172D01*
X98340609Y-65729185D01*
X98428210Y-65860288D01*
X98428213Y-65860292D01*
X98539707Y-65971786D01*
X98539711Y-65971789D01*
X98670814Y-66059390D01*
X98670827Y-66059397D01*
X98816498Y-66119735D01*
X98816503Y-66119737D01*
X98971153Y-66150499D01*
X98971156Y-66150500D01*
X98971158Y-66150500D01*
X99128844Y-66150500D01*
X99128845Y-66150499D01*
X99283497Y-66119737D01*
X99400790Y-66071153D01*
X101049500Y-66071153D01*
X101049500Y-66228846D01*
X101080261Y-66383489D01*
X101080264Y-66383501D01*
X101140602Y-66529172D01*
X101140609Y-66529185D01*
X101228210Y-66660288D01*
X101228213Y-66660292D01*
X101339707Y-66771786D01*
X101339711Y-66771789D01*
X101470814Y-66859390D01*
X101470827Y-66859397D01*
X101616498Y-66919735D01*
X101616503Y-66919737D01*
X101771153Y-66950499D01*
X101771156Y-66950500D01*
X101771158Y-66950500D01*
X101928844Y-66950500D01*
X101928845Y-66950499D01*
X102083497Y-66919737D01*
X102229179Y-66859394D01*
X102360289Y-66771789D01*
X102471789Y-66660289D01*
X102559394Y-66529179D01*
X102619737Y-66383497D01*
X102650500Y-66228842D01*
X102650500Y-66071158D01*
X102650500Y-66071155D01*
X102650499Y-66071153D01*
X102630734Y-65971788D01*
X102619737Y-65916503D01*
X102596452Y-65860288D01*
X102559397Y-65770827D01*
X102559390Y-65770814D01*
X102471789Y-65639711D01*
X102471786Y-65639707D01*
X102360292Y-65528213D01*
X102360288Y-65528210D01*
X102229185Y-65440609D01*
X102229172Y-65440602D01*
X102083501Y-65380264D01*
X102083489Y-65380261D01*
X101928845Y-65349500D01*
X101928842Y-65349500D01*
X101771158Y-65349500D01*
X101771155Y-65349500D01*
X101616510Y-65380261D01*
X101616498Y-65380264D01*
X101470827Y-65440602D01*
X101470814Y-65440609D01*
X101339711Y-65528210D01*
X101339707Y-65528213D01*
X101228213Y-65639707D01*
X101228210Y-65639711D01*
X101140609Y-65770814D01*
X101140602Y-65770827D01*
X101080264Y-65916498D01*
X101080261Y-65916510D01*
X101049500Y-66071153D01*
X99400790Y-66071153D01*
X99429179Y-66059394D01*
X99560289Y-65971789D01*
X99671789Y-65860289D01*
X99759394Y-65729179D01*
X99819737Y-65583497D01*
X99850500Y-65428842D01*
X99850500Y-65271158D01*
X99850500Y-65271155D01*
X99850499Y-65271153D01*
X129949500Y-65271153D01*
X129949500Y-65428846D01*
X129980261Y-65583489D01*
X129980264Y-65583501D01*
X130040602Y-65729172D01*
X130040609Y-65729185D01*
X130128210Y-65860288D01*
X130128213Y-65860292D01*
X130239707Y-65971786D01*
X130239711Y-65971789D01*
X130370814Y-66059390D01*
X130370827Y-66059397D01*
X130516498Y-66119735D01*
X130516503Y-66119737D01*
X130671153Y-66150499D01*
X130671156Y-66150500D01*
X130671158Y-66150500D01*
X130828844Y-66150500D01*
X130828845Y-66150499D01*
X130983497Y-66119737D01*
X131129179Y-66059394D01*
X131260289Y-65971789D01*
X131371789Y-65860289D01*
X131459394Y-65729179D01*
X131519737Y-65583497D01*
X131550500Y-65428842D01*
X131550500Y-65271158D01*
X131550500Y-65271155D01*
X131550499Y-65271153D01*
X131519738Y-65116510D01*
X131519737Y-65116503D01*
X131519735Y-65116498D01*
X131459397Y-64970827D01*
X131459390Y-64970814D01*
X131371789Y-64839711D01*
X131371786Y-64839707D01*
X131260292Y-64728213D01*
X131260288Y-64728210D01*
X131129185Y-64640609D01*
X131129172Y-64640602D01*
X130983501Y-64580264D01*
X130983489Y-64580261D01*
X130828845Y-64549500D01*
X130828842Y-64549500D01*
X130671158Y-64549500D01*
X130671155Y-64549500D01*
X130516510Y-64580261D01*
X130516498Y-64580264D01*
X130370827Y-64640602D01*
X130370814Y-64640609D01*
X130239711Y-64728210D01*
X130239707Y-64728213D01*
X130128213Y-64839707D01*
X130128210Y-64839711D01*
X130040609Y-64970814D01*
X130040602Y-64970827D01*
X129980264Y-65116498D01*
X129980261Y-65116510D01*
X129949500Y-65271153D01*
X99850499Y-65271153D01*
X99819738Y-65116510D01*
X99819737Y-65116503D01*
X99819735Y-65116498D01*
X99759397Y-64970827D01*
X99759390Y-64970814D01*
X99671789Y-64839711D01*
X99671786Y-64839707D01*
X99560292Y-64728213D01*
X99560288Y-64728210D01*
X99429185Y-64640609D01*
X99429172Y-64640602D01*
X99283501Y-64580264D01*
X99283489Y-64580261D01*
X99128845Y-64549500D01*
X99128842Y-64549500D01*
X98971158Y-64549500D01*
X98971155Y-64549500D01*
X98816510Y-64580261D01*
X98816498Y-64580264D01*
X98670827Y-64640602D01*
X98670814Y-64640609D01*
X98539711Y-64728210D01*
X98539707Y-64728213D01*
X98428213Y-64839707D01*
X98428210Y-64839711D01*
X98340609Y-64970814D01*
X98340602Y-64970827D01*
X98280264Y-65116498D01*
X98280261Y-65116510D01*
X98249500Y-65271153D01*
X76250500Y-65271153D01*
X76250500Y-62571153D01*
X80349500Y-62571153D01*
X80349500Y-62728846D01*
X80380261Y-62883489D01*
X80380264Y-62883501D01*
X80440602Y-63029172D01*
X80440609Y-63029185D01*
X80528210Y-63160288D01*
X80528213Y-63160292D01*
X80639707Y-63271786D01*
X80639711Y-63271789D01*
X80770814Y-63359390D01*
X80770827Y-63359397D01*
X80916498Y-63419735D01*
X80916503Y-63419737D01*
X81071153Y-63450499D01*
X81071156Y-63450500D01*
X81071158Y-63450500D01*
X81228844Y-63450500D01*
X81228845Y-63450499D01*
X81383497Y-63419737D01*
X81529179Y-63359394D01*
X81660289Y-63271789D01*
X81771789Y-63160289D01*
X81859394Y-63029179D01*
X81919737Y-62883497D01*
X81950500Y-62728842D01*
X81950500Y-62571158D01*
X81950500Y-62571155D01*
X81950499Y-62571153D01*
X81919738Y-62416510D01*
X81919737Y-62416503D01*
X81919735Y-62416498D01*
X81859397Y-62270827D01*
X81859390Y-62270814D01*
X81771789Y-62139711D01*
X81771786Y-62139707D01*
X81660292Y-62028213D01*
X81660288Y-62028210D01*
X81529185Y-61940609D01*
X81529172Y-61940602D01*
X81383501Y-61880264D01*
X81383489Y-61880261D01*
X81228845Y-61849500D01*
X81228842Y-61849500D01*
X81071158Y-61849500D01*
X81071155Y-61849500D01*
X80916510Y-61880261D01*
X80916498Y-61880264D01*
X80770827Y-61940602D01*
X80770814Y-61940609D01*
X80639711Y-62028210D01*
X80639707Y-62028213D01*
X80528213Y-62139707D01*
X80528210Y-62139711D01*
X80440609Y-62270814D01*
X80440602Y-62270827D01*
X80380264Y-62416498D01*
X80380261Y-62416510D01*
X80349500Y-62571153D01*
X76250500Y-62571153D01*
X76250500Y-58971153D01*
X80949500Y-58971153D01*
X80949500Y-59128846D01*
X80980261Y-59283489D01*
X80980264Y-59283501D01*
X81040602Y-59429172D01*
X81040609Y-59429185D01*
X81128210Y-59560288D01*
X81128213Y-59560292D01*
X81239707Y-59671786D01*
X81239711Y-59671789D01*
X81370814Y-59759390D01*
X81370827Y-59759397D01*
X81516498Y-59819735D01*
X81516503Y-59819737D01*
X81671153Y-59850499D01*
X81671156Y-59850500D01*
X81671158Y-59850500D01*
X81828844Y-59850500D01*
X81828845Y-59850499D01*
X81983497Y-59819737D01*
X82129179Y-59759394D01*
X82260289Y-59671789D01*
X82371789Y-59560289D01*
X82459394Y-59429179D01*
X82519737Y-59283497D01*
X82550500Y-59128842D01*
X82550500Y-58971158D01*
X82550500Y-58971155D01*
X82550499Y-58971153D01*
X82519738Y-58816510D01*
X82519737Y-58816503D01*
X82492398Y-58750500D01*
X82459397Y-58670827D01*
X82459390Y-58670814D01*
X82371789Y-58539711D01*
X82371786Y-58539707D01*
X82260292Y-58428213D01*
X82260288Y-58428210D01*
X82129185Y-58340609D01*
X82129172Y-58340602D01*
X81983501Y-58280264D01*
X81983489Y-58280261D01*
X81828845Y-58249500D01*
X81828842Y-58249500D01*
X81671158Y-58249500D01*
X81671155Y-58249500D01*
X81516510Y-58280261D01*
X81516498Y-58280264D01*
X81370827Y-58340602D01*
X81370814Y-58340609D01*
X81239711Y-58428210D01*
X81239707Y-58428213D01*
X81128213Y-58539707D01*
X81128210Y-58539711D01*
X81040609Y-58670814D01*
X81040602Y-58670827D01*
X80980264Y-58816498D01*
X80980261Y-58816510D01*
X80949500Y-58971153D01*
X76250500Y-58971153D01*
X76250500Y-57871153D01*
X82849500Y-57871153D01*
X82849500Y-58028846D01*
X82880261Y-58183489D01*
X82880264Y-58183501D01*
X82940602Y-58329172D01*
X82940609Y-58329185D01*
X83028210Y-58460288D01*
X83028213Y-58460292D01*
X83139707Y-58571786D01*
X83139711Y-58571789D01*
X83270814Y-58659390D01*
X83270827Y-58659397D01*
X83416498Y-58719735D01*
X83416503Y-58719737D01*
X83571153Y-58750499D01*
X83571156Y-58750500D01*
X83571158Y-58750500D01*
X83728844Y-58750500D01*
X83728845Y-58750499D01*
X83883497Y-58719737D01*
X84001592Y-58670821D01*
X84029172Y-58659397D01*
X84029172Y-58659396D01*
X84029179Y-58659394D01*
X84160289Y-58571789D01*
X84271789Y-58460289D01*
X84359394Y-58329179D01*
X84419737Y-58183497D01*
X84450500Y-58028842D01*
X84450500Y-57871158D01*
X84450500Y-57871155D01*
X84450499Y-57871153D01*
X84419738Y-57716510D01*
X84419737Y-57716503D01*
X84419735Y-57716498D01*
X84359397Y-57570827D01*
X84359390Y-57570814D01*
X84271789Y-57439711D01*
X84271786Y-57439707D01*
X84160292Y-57328213D01*
X84160288Y-57328210D01*
X84029185Y-57240609D01*
X84029172Y-57240602D01*
X83883501Y-57180264D01*
X83883489Y-57180261D01*
X83728845Y-57149500D01*
X83728842Y-57149500D01*
X83571158Y-57149500D01*
X83571155Y-57149500D01*
X83416510Y-57180261D01*
X83416498Y-57180264D01*
X83270827Y-57240602D01*
X83270814Y-57240609D01*
X83139711Y-57328210D01*
X83139707Y-57328213D01*
X83028213Y-57439707D01*
X83028210Y-57439711D01*
X82940609Y-57570814D01*
X82940602Y-57570827D01*
X82880264Y-57716498D01*
X82880261Y-57716510D01*
X82849500Y-57871153D01*
X76250500Y-57871153D01*
X76250500Y-54371153D01*
X77169500Y-54371153D01*
X77169500Y-54528846D01*
X77200261Y-54683489D01*
X77200264Y-54683501D01*
X77260602Y-54829172D01*
X77260609Y-54829185D01*
X77348210Y-54960288D01*
X77348213Y-54960292D01*
X77459707Y-55071786D01*
X77459711Y-55071789D01*
X77590814Y-55159390D01*
X77590827Y-55159397D01*
X77736498Y-55219735D01*
X77736503Y-55219737D01*
X77891153Y-55250499D01*
X77891156Y-55250500D01*
X77891158Y-55250500D01*
X78048844Y-55250500D01*
X78048845Y-55250499D01*
X78203497Y-55219737D01*
X78349179Y-55159394D01*
X78480289Y-55071789D01*
X78591789Y-54960289D01*
X78679394Y-54829179D01*
X78739737Y-54683497D01*
X78770500Y-54528842D01*
X78770500Y-54371158D01*
X78770500Y-54371155D01*
X78770499Y-54371153D01*
X78753061Y-54283489D01*
X78739737Y-54216503D01*
X78698314Y-54116498D01*
X78679397Y-54070827D01*
X78679390Y-54070814D01*
X78591789Y-53939711D01*
X78591786Y-53939707D01*
X78480292Y-53828213D01*
X78480288Y-53828210D01*
X78349185Y-53740609D01*
X78349172Y-53740602D01*
X78203501Y-53680264D01*
X78203489Y-53680261D01*
X78048845Y-53649500D01*
X78048842Y-53649500D01*
X77891158Y-53649500D01*
X77891155Y-53649500D01*
X77736510Y-53680261D01*
X77736498Y-53680264D01*
X77590827Y-53740602D01*
X77590814Y-53740609D01*
X77459711Y-53828210D01*
X77459707Y-53828213D01*
X77348213Y-53939707D01*
X77348210Y-53939711D01*
X77260609Y-54070814D01*
X77260602Y-54070827D01*
X77200264Y-54216498D01*
X77200261Y-54216510D01*
X77169500Y-54371153D01*
X76250500Y-54371153D01*
X76250500Y-50952135D01*
X76579500Y-50952135D01*
X76579500Y-52747870D01*
X76579501Y-52747876D01*
X76585908Y-52807483D01*
X76636202Y-52942328D01*
X76636206Y-52942335D01*
X76722452Y-53057544D01*
X76722455Y-53057547D01*
X76837664Y-53143793D01*
X76837671Y-53143797D01*
X76972517Y-53194091D01*
X76972516Y-53194091D01*
X76979444Y-53194835D01*
X77032127Y-53200500D01*
X78827872Y-53200499D01*
X78887483Y-53194091D01*
X79022331Y-53143796D01*
X79137546Y-53057546D01*
X79223796Y-52942331D01*
X79272810Y-52810916D01*
X79314681Y-52754984D01*
X79380145Y-52730566D01*
X79448418Y-52745417D01*
X79476673Y-52766569D01*
X79590213Y-52880109D01*
X79762179Y-53005048D01*
X79762181Y-53005049D01*
X79762184Y-53005051D01*
X79951588Y-53101557D01*
X80153757Y-53167246D01*
X80363713Y-53200500D01*
X80363714Y-53200500D01*
X80576286Y-53200500D01*
X80576287Y-53200500D01*
X80786243Y-53167246D01*
X80988412Y-53101557D01*
X81177816Y-53005051D01*
X81264138Y-52942335D01*
X81349786Y-52880109D01*
X81349788Y-52880106D01*
X81349792Y-52880104D01*
X81500104Y-52729792D01*
X81500106Y-52729788D01*
X81500109Y-52729786D01*
X81625048Y-52557820D01*
X81625047Y-52557820D01*
X81625051Y-52557816D01*
X81629514Y-52549054D01*
X81677488Y-52498259D01*
X81745308Y-52481463D01*
X81811444Y-52503999D01*
X81850486Y-52549056D01*
X81854951Y-52557820D01*
X81979890Y-52729786D01*
X82130213Y-52880109D01*
X82302179Y-53005048D01*
X82302181Y-53005049D01*
X82302184Y-53005051D01*
X82491588Y-53101557D01*
X82693757Y-53167246D01*
X82903713Y-53200500D01*
X82903714Y-53200500D01*
X83116286Y-53200500D01*
X83116287Y-53200500D01*
X83326243Y-53167246D01*
X83528412Y-53101557D01*
X83717816Y-53005051D01*
X83804138Y-52942335D01*
X83889786Y-52880109D01*
X83889788Y-52880106D01*
X83889792Y-52880104D01*
X84040104Y-52729792D01*
X84040106Y-52729788D01*
X84040109Y-52729786D01*
X84125890Y-52611717D01*
X84165051Y-52557816D01*
X84169793Y-52548508D01*
X84217763Y-52497711D01*
X84285583Y-52480911D01*
X84351719Y-52503445D01*
X84390763Y-52548500D01*
X84395373Y-52557547D01*
X84434728Y-52611716D01*
X85067037Y-51979408D01*
X85084075Y-52042993D01*
X85149901Y-52157007D01*
X85242993Y-52250099D01*
X85357007Y-52315925D01*
X85420590Y-52332962D01*
X84788282Y-52965269D01*
X84788282Y-52965270D01*
X84842449Y-53004624D01*
X85031782Y-53101095D01*
X85233870Y-53166757D01*
X85443754Y-53200000D01*
X85656246Y-53200000D01*
X85866127Y-53166757D01*
X85866130Y-53166757D01*
X86068217Y-53101095D01*
X86257554Y-53004622D01*
X86311716Y-52965270D01*
X86311717Y-52965270D01*
X85679408Y-52332962D01*
X85742993Y-52315925D01*
X85857007Y-52250099D01*
X85950099Y-52157007D01*
X86015925Y-52042993D01*
X86032962Y-51979408D01*
X86665270Y-52611717D01*
X86665270Y-52611716D01*
X86704622Y-52557554D01*
X86801095Y-52368217D01*
X86866757Y-52166130D01*
X86866757Y-52166127D01*
X86888439Y-52029240D01*
X86900000Y-51956246D01*
X86900000Y-51743753D01*
X86866757Y-51533872D01*
X86866757Y-51533869D01*
X86801095Y-51331782D01*
X86704624Y-51142449D01*
X86665270Y-51088282D01*
X86665269Y-51088282D01*
X86032962Y-51720590D01*
X86015925Y-51657007D01*
X85950099Y-51542993D01*
X85857007Y-51449901D01*
X85742993Y-51384075D01*
X85679409Y-51367037D01*
X86094290Y-50952155D01*
X89010000Y-50952155D01*
X89010000Y-51600000D01*
X89926988Y-51600000D01*
X89894075Y-51657007D01*
X89860000Y-51784174D01*
X89860000Y-51915826D01*
X89894075Y-52042993D01*
X89926988Y-52100000D01*
X89010000Y-52100000D01*
X89010000Y-52747844D01*
X89016401Y-52807372D01*
X89016403Y-52807379D01*
X89066645Y-52942086D01*
X89066649Y-52942093D01*
X89152809Y-53057187D01*
X89152812Y-53057190D01*
X89267906Y-53143350D01*
X89267913Y-53143354D01*
X89402620Y-53193596D01*
X89402627Y-53193598D01*
X89462155Y-53199999D01*
X89462172Y-53200000D01*
X90110000Y-53200000D01*
X90110000Y-52283012D01*
X90167007Y-52315925D01*
X90294174Y-52350000D01*
X90425826Y-52350000D01*
X90552993Y-52315925D01*
X90610000Y-52283012D01*
X90610000Y-53200000D01*
X91257828Y-53200000D01*
X91257844Y-53199999D01*
X91317372Y-53193598D01*
X91317379Y-53193596D01*
X91452086Y-53143354D01*
X91452093Y-53143350D01*
X91567187Y-53057190D01*
X91567190Y-53057187D01*
X91653350Y-52942093D01*
X91653354Y-52942086D01*
X91702422Y-52810529D01*
X91744293Y-52754595D01*
X91809757Y-52730178D01*
X91878030Y-52745030D01*
X91906285Y-52766181D01*
X92020213Y-52880109D01*
X92192179Y-53005048D01*
X92192181Y-53005049D01*
X92192184Y-53005051D01*
X92381588Y-53101557D01*
X92583757Y-53167246D01*
X92793713Y-53200500D01*
X92793714Y-53200500D01*
X93006286Y-53200500D01*
X93006287Y-53200500D01*
X93216243Y-53167246D01*
X93418412Y-53101557D01*
X93607816Y-53005051D01*
X93694138Y-52942335D01*
X93779786Y-52880109D01*
X93779788Y-52880106D01*
X93779792Y-52880104D01*
X93930104Y-52729792D01*
X93930106Y-52729788D01*
X93930109Y-52729786D01*
X94055048Y-52557820D01*
X94055047Y-52557820D01*
X94055051Y-52557816D01*
X94059514Y-52549054D01*
X94107488Y-52498259D01*
X94175308Y-52481463D01*
X94241444Y-52503999D01*
X94280486Y-52549056D01*
X94284951Y-52557820D01*
X94409890Y-52729786D01*
X94560213Y-52880109D01*
X94732179Y-53005048D01*
X94732181Y-53005049D01*
X94732184Y-53005051D01*
X94921588Y-53101557D01*
X95123757Y-53167246D01*
X95333713Y-53200500D01*
X95333714Y-53200500D01*
X95546286Y-53200500D01*
X95546287Y-53200500D01*
X95756243Y-53167246D01*
X95958412Y-53101557D01*
X96147816Y-53005051D01*
X96234138Y-52942335D01*
X96319786Y-52880109D01*
X96319788Y-52880106D01*
X96319792Y-52880104D01*
X96470104Y-52729792D01*
X96470106Y-52729788D01*
X96470109Y-52729786D01*
X96595048Y-52557820D01*
X96595047Y-52557820D01*
X96595051Y-52557816D01*
X96599514Y-52549054D01*
X96647488Y-52498259D01*
X96715308Y-52481463D01*
X96781444Y-52503999D01*
X96820486Y-52549056D01*
X96824951Y-52557820D01*
X96949890Y-52729786D01*
X97100213Y-52880109D01*
X97272179Y-53005048D01*
X97272181Y-53005049D01*
X97272184Y-53005051D01*
X97461588Y-53101557D01*
X97532652Y-53124647D01*
X97590328Y-53164085D01*
X97617526Y-53228443D01*
X97605611Y-53297290D01*
X97563225Y-53345680D01*
X97439711Y-53428210D01*
X97439707Y-53428213D01*
X97328213Y-53539707D01*
X97328210Y-53539711D01*
X97240609Y-53670814D01*
X97240602Y-53670827D01*
X97180264Y-53816498D01*
X97180261Y-53816510D01*
X97149500Y-53971153D01*
X97149500Y-54128846D01*
X97180261Y-54283489D01*
X97180264Y-54283501D01*
X97240602Y-54429172D01*
X97240609Y-54429185D01*
X97328210Y-54560288D01*
X97328213Y-54560292D01*
X97439707Y-54671786D01*
X97439711Y-54671789D01*
X97570814Y-54759390D01*
X97570827Y-54759397D01*
X97716498Y-54819735D01*
X97716503Y-54819737D01*
X97871153Y-54850499D01*
X97871156Y-54850500D01*
X97871158Y-54850500D01*
X98028844Y-54850500D01*
X98028845Y-54850499D01*
X98183497Y-54819737D01*
X98329179Y-54759394D01*
X98460289Y-54671789D01*
X98571789Y-54560289D01*
X98659394Y-54429179D01*
X98719737Y-54283497D01*
X98750500Y-54128842D01*
X98750500Y-53971158D01*
X98750500Y-53971155D01*
X98750499Y-53971153D01*
X98724353Y-53839711D01*
X98719737Y-53816503D01*
X98688298Y-53740602D01*
X98659397Y-53670827D01*
X98659390Y-53670814D01*
X98571789Y-53539711D01*
X98571786Y-53539707D01*
X98460292Y-53428213D01*
X98460288Y-53428210D01*
X98356404Y-53358797D01*
X98311599Y-53305185D01*
X98302892Y-53235860D01*
X98333046Y-53172833D01*
X98386975Y-53137765D01*
X98498412Y-53101557D01*
X98687816Y-53005051D01*
X98774138Y-52942335D01*
X98859786Y-52880109D01*
X98859788Y-52880106D01*
X98859792Y-52880104D01*
X99010104Y-52729792D01*
X99010106Y-52729788D01*
X99010109Y-52729786D01*
X99135048Y-52557820D01*
X99135047Y-52557820D01*
X99135051Y-52557816D01*
X99139514Y-52549054D01*
X99187488Y-52498259D01*
X99255308Y-52481463D01*
X99321444Y-52503999D01*
X99360486Y-52549056D01*
X99364951Y-52557820D01*
X99489890Y-52729786D01*
X99640213Y-52880109D01*
X99812179Y-53005048D01*
X99812181Y-53005049D01*
X99812184Y-53005051D01*
X100001588Y-53101557D01*
X100113022Y-53137764D01*
X100170698Y-53177202D01*
X100197896Y-53241560D01*
X100185981Y-53310407D01*
X100143595Y-53358797D01*
X100039711Y-53428210D01*
X100039707Y-53428213D01*
X99928213Y-53539707D01*
X99928210Y-53539711D01*
X99840609Y-53670814D01*
X99840602Y-53670827D01*
X99780264Y-53816498D01*
X99780261Y-53816510D01*
X99749500Y-53971153D01*
X99749500Y-54128846D01*
X99780261Y-54283489D01*
X99780264Y-54283501D01*
X99840602Y-54429172D01*
X99840609Y-54429185D01*
X99928210Y-54560288D01*
X99928213Y-54560292D01*
X100039707Y-54671786D01*
X100039711Y-54671789D01*
X100170814Y-54759390D01*
X100170827Y-54759397D01*
X100316498Y-54819735D01*
X100316503Y-54819737D01*
X100471153Y-54850499D01*
X100471156Y-54850500D01*
X100471158Y-54850500D01*
X100628844Y-54850500D01*
X100628845Y-54850499D01*
X100783497Y-54819737D01*
X100929179Y-54759394D01*
X101060289Y-54671789D01*
X101171789Y-54560289D01*
X101259394Y-54429179D01*
X101319737Y-54283497D01*
X101322192Y-54271153D01*
X120049500Y-54271153D01*
X120049500Y-54428846D01*
X120080261Y-54583489D01*
X120080264Y-54583501D01*
X120140602Y-54729172D01*
X120140609Y-54729185D01*
X120228210Y-54860288D01*
X120228213Y-54860292D01*
X120339707Y-54971786D01*
X120339711Y-54971789D01*
X120470814Y-55059390D01*
X120470827Y-55059397D01*
X120616498Y-55119735D01*
X120616503Y-55119737D01*
X120771153Y-55150499D01*
X120771156Y-55150500D01*
X120771158Y-55150500D01*
X120928844Y-55150500D01*
X120928845Y-55150499D01*
X121083497Y-55119737D01*
X121229179Y-55059394D01*
X121360289Y-54971789D01*
X121471789Y-54860289D01*
X121559394Y-54729179D01*
X121619737Y-54583497D01*
X121650500Y-54428842D01*
X121650500Y-54271158D01*
X121650500Y-54271155D01*
X121650499Y-54271153D01*
X122549500Y-54271153D01*
X122549500Y-54428846D01*
X122580261Y-54583489D01*
X122580264Y-54583501D01*
X122640602Y-54729172D01*
X122640609Y-54729185D01*
X122728210Y-54860288D01*
X122728213Y-54860292D01*
X122839707Y-54971786D01*
X122839711Y-54971789D01*
X122970814Y-55059390D01*
X122970827Y-55059397D01*
X123116498Y-55119735D01*
X123116503Y-55119737D01*
X123271153Y-55150499D01*
X123271156Y-55150500D01*
X123271158Y-55150500D01*
X123428844Y-55150500D01*
X123428845Y-55150499D01*
X123583497Y-55119737D01*
X123729179Y-55059394D01*
X123860289Y-54971789D01*
X123971789Y-54860289D01*
X124059394Y-54729179D01*
X124119737Y-54583497D01*
X124150500Y-54428842D01*
X124150500Y-54271158D01*
X124150500Y-54271155D01*
X124150499Y-54271153D01*
X124122192Y-54128846D01*
X124119737Y-54116503D01*
X124059534Y-53971158D01*
X124059397Y-53970827D01*
X124059390Y-53970814D01*
X123971789Y-53839711D01*
X123971786Y-53839707D01*
X123860292Y-53728213D01*
X123860288Y-53728210D01*
X123729185Y-53640609D01*
X123729172Y-53640602D01*
X123583501Y-53580264D01*
X123583489Y-53580261D01*
X123428845Y-53549500D01*
X123428842Y-53549500D01*
X123271158Y-53549500D01*
X123271155Y-53549500D01*
X123116510Y-53580261D01*
X123116498Y-53580264D01*
X122970827Y-53640602D01*
X122970814Y-53640609D01*
X122839711Y-53728210D01*
X122839707Y-53728213D01*
X122728213Y-53839707D01*
X122728210Y-53839711D01*
X122640609Y-53970814D01*
X122640602Y-53970827D01*
X122580264Y-54116498D01*
X122580261Y-54116510D01*
X122549500Y-54271153D01*
X121650499Y-54271153D01*
X121622192Y-54128846D01*
X121619737Y-54116503D01*
X121559534Y-53971158D01*
X121559397Y-53970827D01*
X121559390Y-53970814D01*
X121471789Y-53839711D01*
X121471786Y-53839707D01*
X121360292Y-53728213D01*
X121360288Y-53728210D01*
X121229185Y-53640609D01*
X121229172Y-53640602D01*
X121083501Y-53580264D01*
X121083489Y-53580261D01*
X120928845Y-53549500D01*
X120928842Y-53549500D01*
X120771158Y-53549500D01*
X120771155Y-53549500D01*
X120616510Y-53580261D01*
X120616498Y-53580264D01*
X120470827Y-53640602D01*
X120470814Y-53640609D01*
X120339711Y-53728210D01*
X120339707Y-53728213D01*
X120228213Y-53839707D01*
X120228210Y-53839711D01*
X120140609Y-53970814D01*
X120140602Y-53970827D01*
X120080264Y-54116498D01*
X120080261Y-54116510D01*
X120049500Y-54271153D01*
X101322192Y-54271153D01*
X101328216Y-54240874D01*
X101328216Y-54240873D01*
X101350499Y-54128846D01*
X101350500Y-54128844D01*
X101350500Y-53971155D01*
X101350499Y-53971153D01*
X101324353Y-53839711D01*
X101319737Y-53816503D01*
X101288298Y-53740602D01*
X101259397Y-53670827D01*
X101259390Y-53670814D01*
X101171789Y-53539711D01*
X101171786Y-53539707D01*
X101060292Y-53428213D01*
X101060288Y-53428210D01*
X100936774Y-53345680D01*
X100891969Y-53292068D01*
X100883262Y-53222743D01*
X100913417Y-53159715D01*
X100967345Y-53124648D01*
X101038412Y-53101557D01*
X101227816Y-53005051D01*
X101314138Y-52942335D01*
X101399786Y-52880109D01*
X101399788Y-52880106D01*
X101399792Y-52880104D01*
X101550104Y-52729792D01*
X101550106Y-52729788D01*
X101550109Y-52729786D01*
X101675048Y-52557820D01*
X101675047Y-52557820D01*
X101675051Y-52557816D01*
X101679514Y-52549054D01*
X101727488Y-52498259D01*
X101795308Y-52481463D01*
X101861444Y-52503999D01*
X101900486Y-52549056D01*
X101904951Y-52557820D01*
X102029890Y-52729786D01*
X102180213Y-52880109D01*
X102352179Y-53005048D01*
X102352181Y-53005049D01*
X102352184Y-53005051D01*
X102541588Y-53101557D01*
X102743757Y-53167246D01*
X102953713Y-53200500D01*
X102953714Y-53200500D01*
X103166286Y-53200500D01*
X103166287Y-53200500D01*
X103376243Y-53167246D01*
X103578412Y-53101557D01*
X103767816Y-53005051D01*
X103854138Y-52942335D01*
X103939786Y-52880109D01*
X103939788Y-52880106D01*
X103939792Y-52880104D01*
X104090104Y-52729792D01*
X104090106Y-52729788D01*
X104090109Y-52729786D01*
X104215048Y-52557820D01*
X104215047Y-52557820D01*
X104215051Y-52557816D01*
X104219514Y-52549054D01*
X104267488Y-52498259D01*
X104335308Y-52481463D01*
X104401444Y-52503999D01*
X104440486Y-52549056D01*
X104444951Y-52557820D01*
X104569890Y-52729786D01*
X104720213Y-52880109D01*
X104892179Y-53005048D01*
X104892181Y-53005049D01*
X104892184Y-53005051D01*
X105081588Y-53101557D01*
X105283757Y-53167246D01*
X105493713Y-53200500D01*
X105493714Y-53200500D01*
X105706286Y-53200500D01*
X105706287Y-53200500D01*
X105916243Y-53167246D01*
X106118412Y-53101557D01*
X106307816Y-53005051D01*
X106394138Y-52942335D01*
X106479786Y-52880109D01*
X106479788Y-52880106D01*
X106479792Y-52880104D01*
X106630104Y-52729792D01*
X106630106Y-52729788D01*
X106630109Y-52729786D01*
X106715890Y-52611717D01*
X106755051Y-52557816D01*
X106759793Y-52548508D01*
X106807763Y-52497711D01*
X106875583Y-52480911D01*
X106941719Y-52503445D01*
X106980763Y-52548500D01*
X106985373Y-52557547D01*
X107024728Y-52611716D01*
X107657037Y-51979408D01*
X107674075Y-52042993D01*
X107739901Y-52157007D01*
X107832993Y-52250099D01*
X107947007Y-52315925D01*
X108010590Y-52332962D01*
X107378282Y-52965269D01*
X107378282Y-52965270D01*
X107432449Y-53004624D01*
X107621782Y-53101095D01*
X107823870Y-53166757D01*
X108033754Y-53200000D01*
X108246246Y-53200000D01*
X108456127Y-53166757D01*
X108456130Y-53166757D01*
X108658217Y-53101095D01*
X108847554Y-53004622D01*
X108901716Y-52965270D01*
X108901717Y-52965270D01*
X108269408Y-52332962D01*
X108332993Y-52315925D01*
X108447007Y-52250099D01*
X108540099Y-52157007D01*
X108605925Y-52042993D01*
X108622962Y-51979409D01*
X109255270Y-52611717D01*
X109255270Y-52611716D01*
X109294622Y-52557554D01*
X109391095Y-52368217D01*
X109456757Y-52166130D01*
X109456757Y-52166127D01*
X109478439Y-52029240D01*
X109490000Y-51956246D01*
X109490000Y-51743753D01*
X109456757Y-51533872D01*
X109456757Y-51533869D01*
X109391095Y-51331782D01*
X109294624Y-51142449D01*
X109255270Y-51088282D01*
X109255269Y-51088282D01*
X108622962Y-51720590D01*
X108605925Y-51657007D01*
X108540099Y-51542993D01*
X108447007Y-51449901D01*
X108332993Y-51384075D01*
X108269409Y-51367037D01*
X108684290Y-50952155D01*
X111860000Y-50952155D01*
X111860000Y-51600000D01*
X112776988Y-51600000D01*
X112744075Y-51657007D01*
X112710000Y-51784174D01*
X112710000Y-51915826D01*
X112744075Y-52042993D01*
X112776988Y-52100000D01*
X111860000Y-52100000D01*
X111860000Y-52747844D01*
X111866401Y-52807372D01*
X111866403Y-52807379D01*
X111916645Y-52942086D01*
X111916649Y-52942093D01*
X112002809Y-53057187D01*
X112002812Y-53057190D01*
X112117906Y-53143350D01*
X112117913Y-53143354D01*
X112252620Y-53193596D01*
X112252627Y-53193598D01*
X112312155Y-53199999D01*
X112312172Y-53200000D01*
X112960000Y-53200000D01*
X112960000Y-52283012D01*
X113017007Y-52315925D01*
X113144174Y-52350000D01*
X113275826Y-52350000D01*
X113402993Y-52315925D01*
X113460000Y-52283012D01*
X113460000Y-53200000D01*
X114107828Y-53200000D01*
X114107844Y-53199999D01*
X114167372Y-53193598D01*
X114167379Y-53193596D01*
X114302086Y-53143354D01*
X114302093Y-53143350D01*
X114417187Y-53057190D01*
X114417190Y-53057187D01*
X114503350Y-52942093D01*
X114503354Y-52942086D01*
X114552422Y-52810529D01*
X114594293Y-52754595D01*
X114659757Y-52730178D01*
X114728030Y-52745030D01*
X114756285Y-52766181D01*
X114870213Y-52880109D01*
X115042179Y-53005048D01*
X115042181Y-53005049D01*
X115042184Y-53005051D01*
X115231588Y-53101557D01*
X115433757Y-53167246D01*
X115643713Y-53200500D01*
X115643714Y-53200500D01*
X115856286Y-53200500D01*
X115856287Y-53200500D01*
X116066243Y-53167246D01*
X116268412Y-53101557D01*
X116457816Y-53005051D01*
X116544138Y-52942335D01*
X116629786Y-52880109D01*
X116629788Y-52880106D01*
X116629792Y-52880104D01*
X116780104Y-52729792D01*
X116780106Y-52729788D01*
X116780109Y-52729786D01*
X116905048Y-52557820D01*
X116905047Y-52557820D01*
X116905051Y-52557816D01*
X116909514Y-52549054D01*
X116957488Y-52498259D01*
X117025308Y-52481463D01*
X117091444Y-52503999D01*
X117130486Y-52549056D01*
X117134951Y-52557820D01*
X117259890Y-52729786D01*
X117410213Y-52880109D01*
X117582179Y-53005048D01*
X117582181Y-53005049D01*
X117582184Y-53005051D01*
X117771588Y-53101557D01*
X117973757Y-53167246D01*
X118183713Y-53200500D01*
X118183714Y-53200500D01*
X118396286Y-53200500D01*
X118396287Y-53200500D01*
X118606243Y-53167246D01*
X118808412Y-53101557D01*
X118997816Y-53005051D01*
X119084138Y-52942335D01*
X119169786Y-52880109D01*
X119169788Y-52880106D01*
X119169792Y-52880104D01*
X119320104Y-52729792D01*
X119320106Y-52729788D01*
X119320109Y-52729786D01*
X119445048Y-52557820D01*
X119445047Y-52557820D01*
X119445051Y-52557816D01*
X119449514Y-52549054D01*
X119497488Y-52498259D01*
X119565308Y-52481463D01*
X119631444Y-52503999D01*
X119670486Y-52549056D01*
X119674951Y-52557820D01*
X119799890Y-52729786D01*
X119950213Y-52880109D01*
X120122179Y-53005048D01*
X120122181Y-53005049D01*
X120122184Y-53005051D01*
X120311588Y-53101557D01*
X120513757Y-53167246D01*
X120723713Y-53200500D01*
X120723714Y-53200500D01*
X120936286Y-53200500D01*
X120936287Y-53200500D01*
X121146243Y-53167246D01*
X121348412Y-53101557D01*
X121537816Y-53005051D01*
X121624138Y-52942335D01*
X121709786Y-52880109D01*
X121709788Y-52880106D01*
X121709792Y-52880104D01*
X121860104Y-52729792D01*
X121860106Y-52729788D01*
X121860109Y-52729786D01*
X121985048Y-52557820D01*
X121985047Y-52557820D01*
X121985051Y-52557816D01*
X121989514Y-52549054D01*
X122037488Y-52498259D01*
X122105308Y-52481463D01*
X122171444Y-52503999D01*
X122210486Y-52549056D01*
X122214951Y-52557820D01*
X122339890Y-52729786D01*
X122490213Y-52880109D01*
X122662179Y-53005048D01*
X122662181Y-53005049D01*
X122662184Y-53005051D01*
X122851588Y-53101557D01*
X123053757Y-53167246D01*
X123263713Y-53200500D01*
X123263714Y-53200500D01*
X123476286Y-53200500D01*
X123476287Y-53200500D01*
X123686243Y-53167246D01*
X123888412Y-53101557D01*
X124077816Y-53005051D01*
X124164138Y-52942335D01*
X124249786Y-52880109D01*
X124249788Y-52880106D01*
X124249792Y-52880104D01*
X124400104Y-52729792D01*
X124400106Y-52729788D01*
X124400109Y-52729786D01*
X124525048Y-52557820D01*
X124525047Y-52557820D01*
X124525051Y-52557816D01*
X124529514Y-52549054D01*
X124577488Y-52498259D01*
X124645308Y-52481463D01*
X124711444Y-52503999D01*
X124750486Y-52549056D01*
X124754951Y-52557820D01*
X124879890Y-52729786D01*
X125030213Y-52880109D01*
X125202179Y-53005048D01*
X125202181Y-53005049D01*
X125202184Y-53005051D01*
X125391588Y-53101557D01*
X125593757Y-53167246D01*
X125803713Y-53200500D01*
X125803714Y-53200500D01*
X126016286Y-53200500D01*
X126016287Y-53200500D01*
X126226243Y-53167246D01*
X126428412Y-53101557D01*
X126617816Y-53005051D01*
X126704138Y-52942335D01*
X126789786Y-52880109D01*
X126789788Y-52880106D01*
X126789792Y-52880104D01*
X126940104Y-52729792D01*
X126940106Y-52729788D01*
X126940109Y-52729786D01*
X127065048Y-52557820D01*
X127065047Y-52557820D01*
X127065051Y-52557816D01*
X127069514Y-52549054D01*
X127117488Y-52498259D01*
X127185308Y-52481463D01*
X127251444Y-52503999D01*
X127290486Y-52549056D01*
X127294951Y-52557820D01*
X127419890Y-52729786D01*
X127570213Y-52880109D01*
X127742179Y-53005048D01*
X127742181Y-53005049D01*
X127742184Y-53005051D01*
X127931588Y-53101557D01*
X128133757Y-53167246D01*
X128343713Y-53200500D01*
X128343714Y-53200500D01*
X128556286Y-53200500D01*
X128556287Y-53200500D01*
X128766243Y-53167246D01*
X128968412Y-53101557D01*
X129157816Y-53005051D01*
X129244138Y-52942335D01*
X129329786Y-52880109D01*
X129329788Y-52880106D01*
X129329792Y-52880104D01*
X129480104Y-52729792D01*
X129480106Y-52729788D01*
X129480109Y-52729786D01*
X129565890Y-52611717D01*
X129605051Y-52557816D01*
X129609793Y-52548508D01*
X129657763Y-52497711D01*
X129725583Y-52480911D01*
X129791719Y-52503445D01*
X129830763Y-52548500D01*
X129835373Y-52557547D01*
X129874728Y-52611716D01*
X130507037Y-51979408D01*
X130524075Y-52042993D01*
X130589901Y-52157007D01*
X130682993Y-52250099D01*
X130797007Y-52315925D01*
X130860590Y-52332962D01*
X130228282Y-52965269D01*
X130228282Y-52965270D01*
X130282449Y-53004624D01*
X130471782Y-53101095D01*
X130673870Y-53166757D01*
X130883754Y-53200000D01*
X131096246Y-53200000D01*
X131306127Y-53166757D01*
X131306130Y-53166757D01*
X131508217Y-53101095D01*
X131697554Y-53004622D01*
X131751716Y-52965270D01*
X131751717Y-52965270D01*
X131119408Y-52332962D01*
X131182993Y-52315925D01*
X131297007Y-52250099D01*
X131390099Y-52157007D01*
X131455925Y-52042993D01*
X131472962Y-51979409D01*
X132105270Y-52611717D01*
X132105270Y-52611716D01*
X132144622Y-52557554D01*
X132241095Y-52368217D01*
X132306757Y-52166130D01*
X132306757Y-52166127D01*
X132340000Y-51956246D01*
X132340000Y-51743753D01*
X132306757Y-51533872D01*
X132306757Y-51533869D01*
X132241095Y-51331782D01*
X132144624Y-51142449D01*
X132105270Y-51088282D01*
X132105269Y-51088282D01*
X131472962Y-51720590D01*
X131455925Y-51657007D01*
X131390099Y-51542993D01*
X131297007Y-51449901D01*
X131182993Y-51384075D01*
X131119409Y-51367037D01*
X131751716Y-50734728D01*
X131697550Y-50695375D01*
X131508217Y-50598904D01*
X131306129Y-50533242D01*
X131096246Y-50500000D01*
X130883754Y-50500000D01*
X130673872Y-50533242D01*
X130673869Y-50533242D01*
X130471782Y-50598904D01*
X130282439Y-50695380D01*
X130228282Y-50734727D01*
X130228282Y-50734728D01*
X130860591Y-51367037D01*
X130797007Y-51384075D01*
X130682993Y-51449901D01*
X130589901Y-51542993D01*
X130524075Y-51657007D01*
X130507037Y-51720591D01*
X129874728Y-51088282D01*
X129874727Y-51088282D01*
X129835380Y-51142440D01*
X129835376Y-51142446D01*
X129830760Y-51151505D01*
X129782781Y-51202297D01*
X129714959Y-51219087D01*
X129648826Y-51196543D01*
X129609794Y-51151493D01*
X129605051Y-51142184D01*
X129605049Y-51142181D01*
X129605048Y-51142179D01*
X129480109Y-50970213D01*
X129329786Y-50819890D01*
X129157820Y-50694951D01*
X128968414Y-50598444D01*
X128968413Y-50598443D01*
X128968412Y-50598443D01*
X128766243Y-50532754D01*
X128766241Y-50532753D01*
X128766240Y-50532753D01*
X128604957Y-50507208D01*
X128556287Y-50499500D01*
X128343713Y-50499500D01*
X128295042Y-50507208D01*
X128133760Y-50532753D01*
X127931585Y-50598444D01*
X127742179Y-50694951D01*
X127570213Y-50819890D01*
X127419890Y-50970213D01*
X127294949Y-51142182D01*
X127290484Y-51150946D01*
X127242509Y-51201742D01*
X127174688Y-51218536D01*
X127108553Y-51195998D01*
X127069516Y-51150946D01*
X127065050Y-51142182D01*
X126940109Y-50970213D01*
X126789786Y-50819890D01*
X126617820Y-50694951D01*
X126428414Y-50598444D01*
X126428413Y-50598443D01*
X126428412Y-50598443D01*
X126226243Y-50532754D01*
X126226241Y-50532753D01*
X126226240Y-50532753D01*
X126064957Y-50507208D01*
X126016287Y-50499500D01*
X125803713Y-50499500D01*
X125755042Y-50507208D01*
X125593760Y-50532753D01*
X125391585Y-50598444D01*
X125202179Y-50694951D01*
X125030213Y-50819890D01*
X124879890Y-50970213D01*
X124754949Y-51142182D01*
X124750484Y-51150946D01*
X124702509Y-51201742D01*
X124634688Y-51218536D01*
X124568553Y-51195998D01*
X124529516Y-51150946D01*
X124525050Y-51142182D01*
X124400109Y-50970213D01*
X124249786Y-50819890D01*
X124077820Y-50694951D01*
X123888414Y-50598444D01*
X123888413Y-50598443D01*
X123888412Y-50598443D01*
X123686243Y-50532754D01*
X123686241Y-50532753D01*
X123686240Y-50532753D01*
X123524957Y-50507208D01*
X123476287Y-50499500D01*
X123263713Y-50499500D01*
X123215042Y-50507208D01*
X123053760Y-50532753D01*
X122851585Y-50598444D01*
X122662179Y-50694951D01*
X122490213Y-50819890D01*
X122339890Y-50970213D01*
X122214949Y-51142182D01*
X122210484Y-51150946D01*
X122162509Y-51201742D01*
X122094688Y-51218536D01*
X122028553Y-51195998D01*
X121989516Y-51150946D01*
X121985050Y-51142182D01*
X121860109Y-50970213D01*
X121709786Y-50819890D01*
X121537820Y-50694951D01*
X121348414Y-50598444D01*
X121348413Y-50598443D01*
X121348412Y-50598443D01*
X121146243Y-50532754D01*
X121146241Y-50532753D01*
X121146240Y-50532753D01*
X120984957Y-50507208D01*
X120936287Y-50499500D01*
X120723713Y-50499500D01*
X120675042Y-50507208D01*
X120513760Y-50532753D01*
X120311585Y-50598444D01*
X120122179Y-50694951D01*
X119950213Y-50819890D01*
X119799890Y-50970213D01*
X119674949Y-51142182D01*
X119670484Y-51150946D01*
X119622509Y-51201742D01*
X119554688Y-51218536D01*
X119488553Y-51195998D01*
X119449516Y-51150946D01*
X119445050Y-51142182D01*
X119320109Y-50970213D01*
X119169786Y-50819890D01*
X118997820Y-50694951D01*
X118808414Y-50598444D01*
X118808413Y-50598443D01*
X118808412Y-50598443D01*
X118606243Y-50532754D01*
X118606241Y-50532753D01*
X118606240Y-50532753D01*
X118444957Y-50507208D01*
X118396287Y-50499500D01*
X118183713Y-50499500D01*
X118135042Y-50507208D01*
X117973760Y-50532753D01*
X117771585Y-50598444D01*
X117582179Y-50694951D01*
X117410213Y-50819890D01*
X117259890Y-50970213D01*
X117134949Y-51142182D01*
X117130484Y-51150946D01*
X117082509Y-51201742D01*
X117014688Y-51218536D01*
X116948553Y-51195998D01*
X116909516Y-51150946D01*
X116905050Y-51142182D01*
X116780109Y-50970213D01*
X116629786Y-50819890D01*
X116457820Y-50694951D01*
X116268414Y-50598444D01*
X116268413Y-50598443D01*
X116268412Y-50598443D01*
X116066243Y-50532754D01*
X116066241Y-50532753D01*
X116066240Y-50532753D01*
X115904957Y-50507208D01*
X115856287Y-50499500D01*
X115643713Y-50499500D01*
X115595042Y-50507208D01*
X115433760Y-50532753D01*
X115231585Y-50598444D01*
X115042179Y-50694951D01*
X114870215Y-50819889D01*
X114756285Y-50933819D01*
X114694962Y-50967303D01*
X114625270Y-50962319D01*
X114569337Y-50920447D01*
X114552422Y-50889470D01*
X114503354Y-50757913D01*
X114503350Y-50757906D01*
X114417190Y-50642812D01*
X114417187Y-50642809D01*
X114302093Y-50556649D01*
X114302086Y-50556645D01*
X114167379Y-50506403D01*
X114167372Y-50506401D01*
X114107844Y-50500000D01*
X113460000Y-50500000D01*
X113460000Y-51416988D01*
X113402993Y-51384075D01*
X113275826Y-51350000D01*
X113144174Y-51350000D01*
X113017007Y-51384075D01*
X112960000Y-51416988D01*
X112960000Y-50500000D01*
X112312155Y-50500000D01*
X112252627Y-50506401D01*
X112252620Y-50506403D01*
X112117913Y-50556645D01*
X112117906Y-50556649D01*
X112002812Y-50642809D01*
X112002809Y-50642812D01*
X111916649Y-50757906D01*
X111916645Y-50757913D01*
X111866403Y-50892620D01*
X111866401Y-50892627D01*
X111860000Y-50952155D01*
X108684290Y-50952155D01*
X108775275Y-50861170D01*
X108901716Y-50734728D01*
X108847550Y-50695375D01*
X108658217Y-50598904D01*
X108456129Y-50533242D01*
X108246246Y-50500000D01*
X108033754Y-50500000D01*
X107823872Y-50533242D01*
X107823869Y-50533242D01*
X107621782Y-50598904D01*
X107432439Y-50695380D01*
X107378282Y-50734727D01*
X107378282Y-50734728D01*
X108010591Y-51367037D01*
X107947007Y-51384075D01*
X107832993Y-51449901D01*
X107739901Y-51542993D01*
X107674075Y-51657007D01*
X107657037Y-51720591D01*
X107024728Y-51088282D01*
X107024727Y-51088282D01*
X106985380Y-51142440D01*
X106985376Y-51142446D01*
X106980760Y-51151505D01*
X106932781Y-51202297D01*
X106864959Y-51219087D01*
X106798826Y-51196543D01*
X106759794Y-51151493D01*
X106755051Y-51142184D01*
X106755049Y-51142181D01*
X106755048Y-51142179D01*
X106630109Y-50970213D01*
X106479786Y-50819890D01*
X106307820Y-50694951D01*
X106118414Y-50598444D01*
X106118413Y-50598443D01*
X106118412Y-50598443D01*
X105916243Y-50532754D01*
X105916241Y-50532753D01*
X105916240Y-50532753D01*
X105754957Y-50507208D01*
X105706287Y-50499500D01*
X105493713Y-50499500D01*
X105445042Y-50507208D01*
X105283760Y-50532753D01*
X105081585Y-50598444D01*
X104892179Y-50694951D01*
X104720213Y-50819890D01*
X104569890Y-50970213D01*
X104444949Y-51142182D01*
X104440484Y-51150946D01*
X104392509Y-51201742D01*
X104324688Y-51218536D01*
X104258553Y-51195998D01*
X104219516Y-51150946D01*
X104215050Y-51142182D01*
X104090109Y-50970213D01*
X103939786Y-50819890D01*
X103767820Y-50694951D01*
X103578414Y-50598444D01*
X103578413Y-50598443D01*
X103578412Y-50598443D01*
X103376243Y-50532754D01*
X103376241Y-50532753D01*
X103376240Y-50532753D01*
X103214957Y-50507208D01*
X103166287Y-50499500D01*
X102953713Y-50499500D01*
X102905042Y-50507208D01*
X102743760Y-50532753D01*
X102541585Y-50598444D01*
X102352179Y-50694951D01*
X102180213Y-50819890D01*
X102029890Y-50970213D01*
X101904949Y-51142182D01*
X101900484Y-51150946D01*
X101852509Y-51201742D01*
X101784688Y-51218536D01*
X101718553Y-51195998D01*
X101679516Y-51150946D01*
X101675050Y-51142182D01*
X101550109Y-50970213D01*
X101399786Y-50819890D01*
X101227820Y-50694951D01*
X101038414Y-50598444D01*
X101038413Y-50598443D01*
X101038412Y-50598443D01*
X100836243Y-50532754D01*
X100836241Y-50532753D01*
X100836240Y-50532753D01*
X100674957Y-50507208D01*
X100626287Y-50499500D01*
X100413713Y-50499500D01*
X100365042Y-50507208D01*
X100203760Y-50532753D01*
X100001585Y-50598444D01*
X99812179Y-50694951D01*
X99640213Y-50819890D01*
X99489890Y-50970213D01*
X99364949Y-51142182D01*
X99360484Y-51150946D01*
X99312509Y-51201742D01*
X99244688Y-51218536D01*
X99178553Y-51195998D01*
X99139516Y-51150946D01*
X99135050Y-51142182D01*
X99010109Y-50970213D01*
X98859786Y-50819890D01*
X98687820Y-50694951D01*
X98498414Y-50598444D01*
X98498413Y-50598443D01*
X98498412Y-50598443D01*
X98296243Y-50532754D01*
X98296241Y-50532753D01*
X98296240Y-50532753D01*
X98134957Y-50507208D01*
X98086287Y-50499500D01*
X97873713Y-50499500D01*
X97825042Y-50507208D01*
X97663760Y-50532753D01*
X97461585Y-50598444D01*
X97272179Y-50694951D01*
X97100213Y-50819890D01*
X96949890Y-50970213D01*
X96824949Y-51142182D01*
X96820484Y-51150946D01*
X96772509Y-51201742D01*
X96704688Y-51218536D01*
X96638553Y-51195998D01*
X96599516Y-51150946D01*
X96595050Y-51142182D01*
X96470109Y-50970213D01*
X96319786Y-50819890D01*
X96147820Y-50694951D01*
X95958414Y-50598444D01*
X95958413Y-50598443D01*
X95958412Y-50598443D01*
X95756243Y-50532754D01*
X95756241Y-50532753D01*
X95756240Y-50532753D01*
X95594957Y-50507208D01*
X95546287Y-50499500D01*
X95333713Y-50499500D01*
X95285042Y-50507208D01*
X95123760Y-50532753D01*
X94921585Y-50598444D01*
X94732179Y-50694951D01*
X94560213Y-50819890D01*
X94409890Y-50970213D01*
X94284949Y-51142182D01*
X94280484Y-51150946D01*
X94232509Y-51201742D01*
X94164688Y-51218536D01*
X94098553Y-51195998D01*
X94059516Y-51150946D01*
X94055050Y-51142182D01*
X93930109Y-50970213D01*
X93779786Y-50819890D01*
X93607820Y-50694951D01*
X93418414Y-50598444D01*
X93418413Y-50598443D01*
X93418412Y-50598443D01*
X93216243Y-50532754D01*
X93216241Y-50532753D01*
X93216240Y-50532753D01*
X93054957Y-50507208D01*
X93006287Y-50499500D01*
X92793713Y-50499500D01*
X92745042Y-50507208D01*
X92583760Y-50532753D01*
X92381585Y-50598444D01*
X92192179Y-50694951D01*
X92020215Y-50819889D01*
X91906285Y-50933819D01*
X91844962Y-50967303D01*
X91775270Y-50962319D01*
X91719337Y-50920447D01*
X91702422Y-50889470D01*
X91653354Y-50757913D01*
X91653350Y-50757906D01*
X91567190Y-50642812D01*
X91567187Y-50642809D01*
X91452093Y-50556649D01*
X91452086Y-50556645D01*
X91317379Y-50506403D01*
X91317372Y-50506401D01*
X91257844Y-50500000D01*
X90610000Y-50500000D01*
X90610000Y-51416988D01*
X90552993Y-51384075D01*
X90425826Y-51350000D01*
X90294174Y-51350000D01*
X90167007Y-51384075D01*
X90110000Y-51416988D01*
X90110000Y-50500000D01*
X89462155Y-50500000D01*
X89402627Y-50506401D01*
X89402620Y-50506403D01*
X89267913Y-50556645D01*
X89267906Y-50556649D01*
X89152812Y-50642809D01*
X89152809Y-50642812D01*
X89066649Y-50757906D01*
X89066645Y-50757913D01*
X89016403Y-50892620D01*
X89016401Y-50892627D01*
X89010000Y-50952155D01*
X86094290Y-50952155D01*
X86185275Y-50861170D01*
X86311716Y-50734728D01*
X86257550Y-50695375D01*
X86068217Y-50598904D01*
X85866129Y-50533242D01*
X85656246Y-50500000D01*
X85443754Y-50500000D01*
X85233872Y-50533242D01*
X85233869Y-50533242D01*
X85031782Y-50598904D01*
X84842439Y-50695380D01*
X84788282Y-50734727D01*
X84788282Y-50734728D01*
X85420591Y-51367037D01*
X85357007Y-51384075D01*
X85242993Y-51449901D01*
X85149901Y-51542993D01*
X85084075Y-51657007D01*
X85067037Y-51720591D01*
X84434728Y-51088282D01*
X84434727Y-51088282D01*
X84395380Y-51142440D01*
X84395376Y-51142446D01*
X84390760Y-51151505D01*
X84342781Y-51202297D01*
X84274959Y-51219087D01*
X84208826Y-51196543D01*
X84169794Y-51151493D01*
X84165051Y-51142184D01*
X84165049Y-51142181D01*
X84165048Y-51142179D01*
X84040109Y-50970213D01*
X83889786Y-50819890D01*
X83717820Y-50694951D01*
X83528414Y-50598444D01*
X83528413Y-50598443D01*
X83528412Y-50598443D01*
X83326243Y-50532754D01*
X83326241Y-50532753D01*
X83326240Y-50532753D01*
X83164957Y-50507208D01*
X83116287Y-50499500D01*
X82903713Y-50499500D01*
X82855042Y-50507208D01*
X82693760Y-50532753D01*
X82491585Y-50598444D01*
X82302179Y-50694951D01*
X82130213Y-50819890D01*
X81979890Y-50970213D01*
X81854949Y-51142182D01*
X81850484Y-51150946D01*
X81802509Y-51201742D01*
X81734688Y-51218536D01*
X81668553Y-51195998D01*
X81629516Y-51150946D01*
X81625050Y-51142182D01*
X81500109Y-50970213D01*
X81349786Y-50819890D01*
X81177820Y-50694951D01*
X80988414Y-50598444D01*
X80988413Y-50598443D01*
X80988412Y-50598443D01*
X80786243Y-50532754D01*
X80786241Y-50532753D01*
X80786240Y-50532753D01*
X80624957Y-50507208D01*
X80576287Y-50499500D01*
X80363713Y-50499500D01*
X80315042Y-50507208D01*
X80153760Y-50532753D01*
X79951585Y-50598444D01*
X79762179Y-50694951D01*
X79590215Y-50819889D01*
X79476673Y-50933431D01*
X79415350Y-50966915D01*
X79345658Y-50961931D01*
X79289725Y-50920059D01*
X79272810Y-50889082D01*
X79223797Y-50757671D01*
X79223793Y-50757664D01*
X79137547Y-50642455D01*
X79137544Y-50642452D01*
X79022335Y-50556206D01*
X79022328Y-50556202D01*
X78887482Y-50505908D01*
X78887483Y-50505908D01*
X78827883Y-50499501D01*
X78827881Y-50499500D01*
X78827873Y-50499500D01*
X78827864Y-50499500D01*
X77032129Y-50499500D01*
X77032123Y-50499501D01*
X76972516Y-50505908D01*
X76837671Y-50556202D01*
X76837664Y-50556206D01*
X76722455Y-50642452D01*
X76722452Y-50642455D01*
X76636206Y-50757664D01*
X76636202Y-50757671D01*
X76585908Y-50892517D01*
X76579501Y-50952116D01*
X76579500Y-50952135D01*
X76250500Y-50952135D01*
X76250500Y-47397648D01*
X77099500Y-47397648D01*
X77099500Y-47602351D01*
X77131522Y-47804534D01*
X77194781Y-47999223D01*
X77287715Y-48181613D01*
X77408028Y-48347213D01*
X77552786Y-48491971D01*
X77707749Y-48604556D01*
X77718390Y-48612287D01*
X77834607Y-48671503D01*
X77900776Y-48705218D01*
X77900778Y-48705218D01*
X77900781Y-48705220D01*
X78005137Y-48739127D01*
X78095465Y-48768477D01*
X78196557Y-48784488D01*
X78297648Y-48800500D01*
X78297649Y-48800500D01*
X78502351Y-48800500D01*
X78502352Y-48800500D01*
X78704534Y-48768477D01*
X78899219Y-48705220D01*
X79081610Y-48612287D01*
X79221072Y-48510963D01*
X79247213Y-48491971D01*
X79247215Y-48491968D01*
X79247219Y-48491966D01*
X79391966Y-48347219D01*
X79391968Y-48347215D01*
X79391971Y-48347213D01*
X79444732Y-48274590D01*
X79512287Y-48181610D01*
X79605220Y-47999219D01*
X79668477Y-47804534D01*
X79700500Y-47602352D01*
X79700500Y-47397648D01*
X79668477Y-47195466D01*
X79605220Y-47000781D01*
X79605218Y-47000778D01*
X79605218Y-47000776D01*
X79571503Y-46934607D01*
X79512287Y-46818390D01*
X79490960Y-46789036D01*
X79464151Y-46752135D01*
X121749500Y-46752135D01*
X121749500Y-48547870D01*
X121749501Y-48547876D01*
X121755908Y-48607483D01*
X121806202Y-48742328D01*
X121806206Y-48742335D01*
X121892452Y-48857544D01*
X121892455Y-48857547D01*
X122007664Y-48943793D01*
X122007671Y-48943797D01*
X122142517Y-48994091D01*
X122142516Y-48994091D01*
X122149444Y-48994835D01*
X122202127Y-49000500D01*
X123997872Y-49000499D01*
X124057483Y-48994091D01*
X124192331Y-48943796D01*
X124307546Y-48857546D01*
X124393796Y-48742331D01*
X124444091Y-48607483D01*
X124450500Y-48547873D01*
X124450499Y-48523979D01*
X124453330Y-48510963D01*
X124463940Y-48491525D01*
X124470179Y-48470275D01*
X124486803Y-48449643D01*
X124486808Y-48449636D01*
X124486811Y-48449634D01*
X124486818Y-48449626D01*
X125157037Y-47779408D01*
X125174075Y-47842993D01*
X125239901Y-47957007D01*
X125332993Y-48050099D01*
X125447007Y-48115925D01*
X125510590Y-48132962D01*
X124878282Y-48765269D01*
X124878282Y-48765270D01*
X124932449Y-48804624D01*
X125121782Y-48901095D01*
X125323870Y-48966757D01*
X125533754Y-49000000D01*
X125746246Y-49000000D01*
X125956127Y-48966757D01*
X125956130Y-48966757D01*
X126158217Y-48901095D01*
X126347554Y-48804622D01*
X126401716Y-48765270D01*
X126401717Y-48765270D01*
X125769408Y-48132962D01*
X125832993Y-48115925D01*
X125947007Y-48050099D01*
X126040099Y-47957007D01*
X126105925Y-47842993D01*
X126122962Y-47779408D01*
X126755270Y-48411717D01*
X126755270Y-48411716D01*
X126794622Y-48357554D01*
X126891095Y-48168217D01*
X126956757Y-47966130D01*
X126956757Y-47966127D01*
X126990000Y-47756246D01*
X126990000Y-47543753D01*
X126969160Y-47412174D01*
X126966859Y-47397648D01*
X129899500Y-47397648D01*
X129899500Y-47602351D01*
X129931522Y-47804534D01*
X129994781Y-47999223D01*
X130087715Y-48181613D01*
X130208028Y-48347213D01*
X130352786Y-48491971D01*
X130507749Y-48604556D01*
X130518390Y-48612287D01*
X130634607Y-48671503D01*
X130700776Y-48705218D01*
X130700778Y-48705218D01*
X130700781Y-48705220D01*
X130805137Y-48739127D01*
X130895465Y-48768477D01*
X130996557Y-48784488D01*
X131097648Y-48800500D01*
X131097649Y-48800500D01*
X131302351Y-48800500D01*
X131302352Y-48800500D01*
X131504534Y-48768477D01*
X131699219Y-48705220D01*
X131881610Y-48612287D01*
X132021072Y-48510963D01*
X132047213Y-48491971D01*
X132047215Y-48491968D01*
X132047219Y-48491966D01*
X132191966Y-48347219D01*
X132191968Y-48347215D01*
X132191971Y-48347213D01*
X132244732Y-48274590D01*
X132312287Y-48181610D01*
X132405220Y-47999219D01*
X132468477Y-47804534D01*
X132500500Y-47602352D01*
X132500500Y-47397648D01*
X132468477Y-47195466D01*
X132405220Y-47000781D01*
X132405218Y-47000778D01*
X132405218Y-47000776D01*
X132371503Y-46934607D01*
X132312287Y-46818390D01*
X132290960Y-46789036D01*
X132191971Y-46652786D01*
X132047213Y-46508028D01*
X131881613Y-46387715D01*
X131881612Y-46387714D01*
X131881610Y-46387713D01*
X131819766Y-46356202D01*
X131699223Y-46294781D01*
X131504534Y-46231522D01*
X131329995Y-46203878D01*
X131302352Y-46199500D01*
X131097648Y-46199500D01*
X131073329Y-46203351D01*
X130895465Y-46231522D01*
X130700776Y-46294781D01*
X130518386Y-46387715D01*
X130352786Y-46508028D01*
X130208028Y-46652786D01*
X130087715Y-46818386D01*
X129994781Y-47000776D01*
X129931522Y-47195465D01*
X129899500Y-47397648D01*
X126966859Y-47397648D01*
X126956757Y-47333872D01*
X126956757Y-47333869D01*
X126891095Y-47131782D01*
X126794624Y-46942449D01*
X126755270Y-46888282D01*
X126755269Y-46888282D01*
X126122962Y-47520590D01*
X126105925Y-47457007D01*
X126040099Y-47342993D01*
X125947007Y-47249901D01*
X125832993Y-47184075D01*
X125769409Y-47167037D01*
X126401716Y-46534728D01*
X126347550Y-46495375D01*
X126158217Y-46398904D01*
X125956129Y-46333242D01*
X125746246Y-46300000D01*
X125533754Y-46300000D01*
X125323872Y-46333242D01*
X125323869Y-46333242D01*
X125121782Y-46398904D01*
X124932439Y-46495380D01*
X124878282Y-46534727D01*
X124878282Y-46534728D01*
X125510591Y-47167037D01*
X125447007Y-47184075D01*
X125332993Y-47249901D01*
X125239901Y-47342993D01*
X125174075Y-47457007D01*
X125157037Y-47520591D01*
X124486818Y-46850372D01*
X124453333Y-46789049D01*
X124453330Y-46789036D01*
X124450499Y-46776015D01*
X124450499Y-46752128D01*
X124444091Y-46692517D01*
X124415926Y-46617002D01*
X124393798Y-46557673D01*
X124393793Y-46557664D01*
X124307547Y-46442455D01*
X124307544Y-46442452D01*
X124192335Y-46356206D01*
X124192328Y-46356202D01*
X124057482Y-46305908D01*
X124057483Y-46305908D01*
X123997883Y-46299501D01*
X123997881Y-46299500D01*
X123997873Y-46299500D01*
X123997864Y-46299500D01*
X122202129Y-46299500D01*
X122202123Y-46299501D01*
X122142516Y-46305908D01*
X122007671Y-46356202D01*
X122007664Y-46356206D01*
X121892455Y-46442452D01*
X121892452Y-46442455D01*
X121806206Y-46557664D01*
X121806202Y-46557671D01*
X121755908Y-46692517D01*
X121749501Y-46752116D01*
X121749500Y-46752135D01*
X79464151Y-46752135D01*
X79391971Y-46652786D01*
X79247213Y-46508028D01*
X79081613Y-46387715D01*
X79081612Y-46387714D01*
X79081610Y-46387713D01*
X79019766Y-46356202D01*
X78899223Y-46294781D01*
X78704534Y-46231522D01*
X78529995Y-46203878D01*
X78502352Y-46199500D01*
X78297648Y-46199500D01*
X78273329Y-46203351D01*
X78095465Y-46231522D01*
X77900776Y-46294781D01*
X77718386Y-46387715D01*
X77552786Y-46508028D01*
X77408028Y-46652786D01*
X77287715Y-46818386D01*
X77194781Y-47000776D01*
X77131522Y-47195465D01*
X77099500Y-47397648D01*
X76250500Y-47397648D01*
X76250500Y-45524500D01*
X76270185Y-45457461D01*
X76322989Y-45411706D01*
X76374500Y-45400500D01*
X133325500Y-45400500D01*
X133392539Y-45420185D01*
G37*
%TD.AperFunction*%
%TD*%
M02*
